<svg width="585" height="176" viewBox="0 0 585 176" fill="none" xmlns="http://www.w3.org/2000/svg">
<g clip-path="url(#clip0_870_250)">
<path d="M-124.63 -352.741L-124.425 -353.197L-124.63 -352.741ZM-182.915 -333.676L-183.346 -333.931L-182.915 -333.676ZM356.362 -252.939L356.35 -252.439L356.362 -252.939ZM16.2631 129.527L15.8483 129.248L16.2631 129.527ZM-522.552 53.765C-398.656 54.7313 -189.077 68.801 -39.8162 143.859L-39.367 142.965C-188.852 67.7951 -398.637 53.7315 -522.545 52.7651L-522.552 53.765ZM16.678 129.806C129.882 -38.4168 230.728 -115.888 370.056 -210.112L369.496 -210.941C230.115 -116.681 129.154 -39.125 15.8483 129.248L16.678 129.806ZM356.374 -253.439C224.317 -256.608 22.2438 -287.179 -124.425 -353.197L-124.836 -352.285C21.9946 -286.195 224.211 -255.611 356.35 -252.439L356.374 -253.439ZM-183.346 -333.931C-252.871 -216.347 -403.53 -80.2766 -536.067 4.86931L-535.526 5.71066C-402.918 -79.4807 -252.119 -215.653 -182.485 -333.422L-183.346 -333.931ZM-124.425 -353.197C-145.808 -362.822 -171.423 -354.096 -183.346 -333.931L-182.485 -333.422C-170.809 -353.168 -145.733 -361.692 -124.836 -352.285L-124.425 -353.197ZM370.056 -210.112C378.916 -216.104 380.778 -226.843 377.823 -236.073C374.869 -245.302 367.052 -253.182 356.374 -253.439L356.35 -252.439C366.494 -252.195 374.01 -244.704 376.871 -235.768C379.731 -226.834 377.889 -216.617 369.496 -210.941L370.056 -210.112ZM-39.8162 143.859C-20.1273 153.759 4.35657 148.116 16.678 129.806L15.8483 129.248C3.82536 147.114 -20.0997 152.654 -39.367 142.965L-39.8162 143.859ZM-522.545 52.7651C-533.199 52.682 -540.988 43.8977 -543.833 33.5261C-546.677 23.1548 -544.499 11.4748 -535.526 5.71066L-536.067 4.86931C-545.545 10.9583 -547.707 23.1803 -544.797 33.7906C-541.887 44.4004 -533.827 53.6771 -522.552 53.765L-522.545 52.7651Z" fill="url(#paint0_radial_870_250)"/>
<path d="M-77.6359 -392.981L-77.3913 -393.417L-77.6359 -392.981ZM-137.373 -379.12L-137.779 -379.411L-137.373 -379.12ZM392.706 -251.232L392.65 -250.736L392.706 -251.232ZM20.2654 99.8161L19.8768 99.5015L20.2654 99.8161ZM-509.791 -23.0741C-386.461 -11.2071 -178.933 21.2535 -36.8577 109.157L-36.3316 108.306C-178.62 20.2713 -386.354 -12.2014 -509.696 -24.0695L-509.791 -23.0741ZM20.6541 100.131C148.225 -57.476 255.497 -125.77 402.578 -207.367L402.092 -208.241C254.957 -126.614 147.561 -58.2456 19.8768 99.5015L20.6541 100.131ZM392.762 -251.729C261.497 -266.509 62.8981 -314.747 -77.3913 -393.417L-77.8804 -392.545C62.5632 -313.788 261.303 -265.525 392.65 -250.736L392.762 -251.729ZM-137.779 -379.411C-217.383 -268.402 -379.433 -146.12 -518.95 -72.9694L-518.485 -72.0838C-378.894 -145.273 -216.696 -267.645 -136.966 -378.828L-137.779 -379.411ZM-77.3913 -393.417C-97.8441 -404.886 -124.127 -398.448 -137.779 -379.411L-136.966 -378.828C-123.598 -397.47 -97.869 -403.754 -77.8804 -392.545L-77.3913 -393.417ZM402.578 -207.367C411.931 -212.556 414.731 -223.089 412.6 -232.543C410.469 -241.996 403.376 -250.534 392.762 -251.729L392.65 -250.736C402.734 -249.6 409.561 -241.476 411.624 -232.324C413.687 -223.172 410.952 -213.157 402.092 -208.241L402.578 -207.367ZM-36.8577 109.157C-18.1166 120.752 6.76901 117.285 20.6541 100.131L19.8768 99.5015C6.32803 116.24 -17.9917 119.653 -36.3316 108.306L-36.8577 109.157ZM-509.696 -24.0695C-520.301 -25.09 -527.287 -34.5257 -529.208 -45.1074C-531.128 -55.6887 -527.93 -67.1317 -518.485 -72.0838L-518.95 -72.9694C-528.927 -67.7383 -532.156 -55.754 -530.192 -44.9288C-528.227 -34.104 -521.015 -24.154 -509.791 -23.0741L-509.696 -24.0695Z" fill="url(#paint1_radial_870_250)"/>
<path d="M-28.9743 -418.027L-28.6882 -418.437L-28.9743 -418.027ZM-89.7824 -410.091L-90.1582 -410.421L-89.7824 -410.091ZM425.199 -230.837L425.095 -230.348L425.199 -230.837ZM20.1281 81.9955L19.7722 81.6443L20.1281 81.9955ZM-495.322 -92.2832C-373.75 -68.3788 -170.406 -15.7231 -37.6357 85.6891L-37.0287 84.8944C-169.998 -16.67 -373.546 -69.3579 -495.129 -93.2644L-495.322 -92.2832ZM20.484 82.3467C162.896 -61.9898 276.348 -119.435 430.722 -186.215L430.325 -187.133C275.894 -120.328 162.311 -62.8208 19.7722 81.6443L20.484 82.3467ZM425.304 -231.326C296.121 -258.907 103.21 -326.388 -28.6882 -418.437L-29.2605 -417.617C102.783 -325.467 295.832 -257.947 425.095 -230.348L425.304 -231.326ZM-90.1582 -410.421C-180.265 -307.753 -353.526 -201.952 -499.543 -142.836L-499.168 -141.909C-353.072 -201.057 -179.655 -306.932 -89.4066 -409.761L-90.1582 -410.421ZM-28.6882 -418.437C-47.9176 -431.857 -74.7054 -428.027 -90.1582 -410.421L-89.4066 -409.761C-74.2746 -427.002 -48.0535 -430.732 -29.2605 -417.617L-28.6882 -418.437ZM430.722 -186.215C440.539 -190.462 444.358 -200.669 443.165 -210.287C441.971 -219.903 435.749 -229.096 425.304 -231.326L425.095 -230.348C435.019 -228.229 441.017 -219.475 442.172 -210.164C443.328 -200.855 439.624 -191.155 430.325 -187.133L430.722 -186.215ZM-37.6357 85.6891C-20.122 99.0663 4.98365 98.0565 20.484 82.3467L19.7722 81.6443C4.64724 96.9737 -19.89 97.9852 -37.0287 84.8944L-37.6357 85.6891ZM-495.129 -93.2644C-505.584 -95.32 -511.611 -105.395 -512.484 -116.114C-513.358 -126.833 -509.053 -137.907 -499.168 -141.909L-499.543 -142.836C-509.985 -138.609 -514.375 -126.999 -513.481 -116.033C-512.587 -105.068 -506.385 -94.4585 -495.322 -92.2832L-495.129 -93.2644Z" fill="url(#paint2_radial_870_250)"/>
<path d="M-6.45768 -415.548L-6.13624 -415.931L-6.45768 -415.548ZM-67.7303 -413.044L-68.0753 -413.405L-67.7303 -413.044ZM429.296 -188.759L429.148 -188.282L429.296 -188.759ZM-1.95942 86.8599L-2.28275 86.4785L-1.95942 86.8599ZM-499.894 -132.51C-380.925 -97.903 -183.062 -27.3951 -59.823 85.4085L-59.1478 84.6708C-182.571 -28.302 -380.635 -98.86 -499.615 -133.471L-499.894 -132.51ZM-1.6361 87.2413C153.032 -43.8764 271.139 -91.0184 430.833 -143.823L430.519 -144.773C270.765 -91.9481 152.524 -44.756 -2.28275 86.4785L-1.6361 87.2413ZM429.443 -189.237C303.22 -228.183 117.065 -312.531 -6.13624 -415.931L-6.77911 -415.165C116.558 -311.651 302.847 -227.252 429.148 -188.282L429.443 -189.237ZM-68.0753 -413.405C-166.945 -319.147 -348.917 -229.152 -499.608 -183.239L-499.317 -182.282C-348.545 -228.22 -166.41 -318.275 -67.3853 -412.682L-68.0753 -413.405ZM-6.13624 -415.931C-24.0978 -431.005 -51.1198 -429.57 -68.0753 -413.405L-67.3853 -412.682C-50.7818 -428.511 -24.333 -429.897 -6.77911 -415.165L-6.13624 -415.931ZM430.833 -143.823C440.989 -147.181 445.699 -157.01 445.365 -166.695C445.03 -176.379 439.649 -186.088 429.443 -189.237L429.148 -188.282C438.845 -185.29 444.042 -176.037 444.365 -166.661C444.689 -157.285 440.139 -147.953 430.519 -144.773L430.833 -143.823ZM-59.823 85.4085C-43.5666 100.288 -18.4705 101.512 -1.6361 87.2413L-2.28275 86.4785C-18.7094 100.404 -43.2395 99.2321 -59.1478 84.6708L-59.823 85.4085ZM-499.615 -133.471C-509.845 -136.447 -514.953 -147.017 -514.872 -157.772C-514.79 -168.526 -509.518 -179.174 -499.317 -182.282L-499.608 -183.239C-510.385 -179.955 -515.788 -168.781 -515.871 -157.779C-515.955 -146.778 -510.72 -135.66 -499.894 -132.51L-499.615 -133.471Z" fill="url(#paint3_radial_870_250)"/>
<path d="M14.8277 -411.305L15.1805 -411.659L14.8277 -411.305ZM-46.4357 -414.025L-46.7487 -414.415L-46.4357 -414.025ZM429.699 -148.255L429.512 -147.791L429.699 -148.255ZM-23.4476 89.6625L-23.7373 89.255L-23.4476 89.6625ZM-500.906 -171.289C-385.314 -126.682 -194.169 -39.5906 -80.9777 83.2919L-80.2422 82.6144C-193.603 -40.4525 -384.944 -127.611 -500.546 -172.221L-500.906 -171.289ZM-23.1579 90.07C142.108 -27.4089 263.798 -64.3285 427.407 -103.351L427.175 -104.324C263.505 -65.2866 141.676 -28.3286 -23.7373 89.255L-23.1579 90.07ZM429.887 -148.718C307.437 -198.265 129.135 -298.15 15.1805 -411.659L14.4748 -410.951C128.555 -297.316 306.986 -197.369 429.512 -147.791L429.887 -148.718ZM-46.7487 -414.415C-153.281 -328.912 -342.253 -254.731 -496.305 -221.808L-496.096 -220.83C-341.961 -253.771 -152.823 -327.998 -46.1228 -413.635L-46.7487 -414.415ZM15.1805 -411.659C-1.43288 -428.208 -28.4791 -429.078 -46.7487 -414.415L-46.1228 -413.635C-28.2324 -427.993 -1.76158 -427.124 14.4748 -410.951L15.1805 -411.659ZM427.407 -103.351C437.812 -105.833 443.342 -115.224 443.832 -124.903C444.323 -134.581 439.788 -144.712 429.887 -148.718L429.512 -147.791C438.918 -143.985 443.309 -134.324 442.834 -124.954C442.359 -115.585 437.03 -106.674 427.175 -104.324L427.407 -103.351ZM-80.9777 83.2919C-66.0467 99.5013 -41.1458 102.857 -23.1579 90.07L-23.7373 89.255C-41.2895 101.732 -65.6309 98.4767 -80.2422 82.6144L-80.9777 83.2919ZM-500.546 -172.221C-510.486 -176.057 -514.676 -187.025 -513.68 -197.733C-512.683 -208.441 -506.525 -218.602 -496.096 -220.83L-496.305 -221.808C-507.321 -219.454 -513.656 -208.78 -514.675 -197.826C-515.695 -186.871 -511.425 -175.348 -500.906 -171.289L-500.546 -172.221Z" fill="url(#paint4_radial_870_250)"/>
<path d="M35.1805 -405.432L35.5616 -405.756L35.1805 -405.432ZM-25.6453 -413.231L-25.9248 -413.646L-25.6453 -413.231ZM426.768 -108.829L426.542 -108.383L426.768 -108.829ZM-44.5762 90.6247L-44.831 90.1945L-44.5762 90.6247ZM-498.708 -209.085C-387.221 -155.031 -203.971 -52.363 -101.378 79.4973L-100.589 78.8833C-203.336 -53.1748 -386.775 -155.926 -498.272 -209.985L-498.708 -209.085ZM-44.3213 91.0549C130.132 -12.2899 254.468 -38.9735 420.753 -64.2707L420.603 -65.2593C254.256 -39.9527 129.778 -13.2423 -44.831 90.1945L-44.3213 91.0549ZM426.993 -109.275C309.082 -168.823 139.694 -283.173 35.5616 -405.756L34.7995 -405.108C139.046 -282.39 308.558 -167.967 426.542 -108.383L426.993 -109.275ZM-25.9248 -413.646C-139.191 -337.288 -333.672 -279.06 -489.926 -259.048L-489.799 -258.056C-333.461 -278.079 -138.81 -336.339 -25.3658 -412.817L-25.9248 -413.646ZM35.5616 -405.756C20.3802 -423.627 -6.50024 -426.741 -25.9248 -413.646L-25.3658 -412.817C-6.34451 -425.64 19.9626 -422.574 34.7995 -405.108L35.5616 -405.756ZM420.753 -64.2707C431.328 -65.8794 437.619 -74.7793 438.912 -84.3841C440.205 -93.9873 436.527 -104.461 426.993 -109.275L426.542 -108.383C435.6 -103.808 439.173 -93.8159 437.921 -84.5175C436.669 -75.2206 430.62 -66.7831 420.603 -65.2593L420.753 -64.2707ZM-101.378 79.4973C-87.8453 96.891 -63.3092 102.303 -44.3213 91.0549L-44.831 90.1945C-63.359 101.17 -87.3458 95.9044 -100.589 78.8833L-101.378 79.4973ZM-498.272 -209.985C-507.859 -214.633 -511.124 -225.911 -509.241 -236.499C-507.358 -247.087 -500.377 -256.702 -489.799 -258.056L-489.926 -259.048C-501.1 -257.617 -508.299 -247.506 -510.225 -236.674C-512.152 -225.843 -508.854 -214.004 -498.708 -209.085L-498.272 -209.985Z" fill="url(#paint5_radial_870_250)"/>
<path d="M55.0577 -397.854L55.4645 -398.144L55.0577 -397.854ZM-4.9055 -410.699L-5.14944 -411.136L-4.9055 -410.699ZM420.538 -69.6192L420.277 -69.1932L420.538 -69.6192ZM-65.8006 89.8214L-66.0186 89.3715L-65.8006 89.8214ZM-493.349 -246.726C-386.76 -183.56 -212.712 -65.9642 -121.476 73.9945L-120.639 73.4484C-212.011 -66.7202 -386.24 -184.415 -492.839 -247.587L-493.349 -246.726ZM-65.5825 90.2714C116.884 1.83913 243.012 -14.3798 410.828 -25.7177L410.761 -26.7155C242.882 -15.3733 116.61 0.86045 -66.0186 89.3715L-65.5825 90.2714ZM420.8 -70.0451C308.267 -139.221 149.008 -267.302 55.4645 -398.144L54.651 -397.563C148.297 -266.576 307.674 -138.412 420.277 -69.1932L420.8 -70.0451ZM-5.14944 -411.136C-124.391 -344.493 -323.051 -302.691 -480.43 -295.783L-480.386 -294.784C-322.923 -301.695 -124.09 -343.515 -4.66157 -410.263L-5.14944 -411.136ZM55.4645 -398.144C41.8268 -417.22 15.2997 -422.565 -5.14944 -411.136L-4.66157 -410.263C15.3631 -421.454 41.3228 -416.205 54.651 -397.563L55.4645 -398.144ZM410.828 -25.7177C421.5 -26.4388 428.512 -34.7829 430.601 -44.2463C432.691 -53.7082 429.899 -64.4517 420.8 -70.0451L420.277 -69.1932C428.921 -63.8791 431.648 -53.6234 429.625 -44.4619C427.602 -35.3019 420.869 -27.3984 410.761 -26.7155L410.828 -25.7177ZM-121.476 73.9945C-109.442 92.4564 -85.4425 99.8965 -65.5825 90.2714L-66.0186 89.3715C-85.3976 98.7635 -108.862 91.515 -120.639 73.4484L-121.476 73.9945ZM-492.839 -247.587C-502.005 -253.019 -504.318 -264.529 -501.558 -274.923C-498.799 -285.318 -491.04 -294.316 -480.386 -294.784L-480.43 -295.783C-491.684 -295.289 -499.702 -285.814 -502.525 -275.18C-505.348 -264.547 -503.049 -252.475 -493.349 -246.726L-492.839 -247.587Z" fill="url(#paint6_radial_870_250)"/>
<path d="M72.4089 -389.606L72.8364 -389.865L72.4089 -389.606ZM13.584 -406.933L13.3737 -407.387L13.584 -406.933ZM412.12 -34.7669L411.826 -34.3618L412.12 -34.7669ZM-84.8503 87.5767L-85.0338 87.1116L-84.8503 87.5767ZM-485.826 -280.229C-384.299 -209.211 -219.607 -78.8353 -139.175 67.5999L-138.299 67.1184C-218.851 -79.5363 -383.716 -210.024 -485.253 -281.048L-485.826 -280.229ZM-84.6667 88.0418C103.944 13.6091 230.936 6.93959 399.129 8.27812L399.137 7.27816C230.881 5.93912 103.745 12.6126 -85.0338 87.1116L-84.6667 88.0418ZM412.413 -35.1719C305.412 -112.63 156.256 -252.346 72.8364 -389.865L71.9814 -389.346C155.492 -251.677 304.759 -111.868 411.826 -34.3618L412.413 -35.1719ZM13.3737 -407.387C-110.55 -349.917 -311.795 -323.203 -469.247 -328.172L-469.278 -327.172C-311.742 -322.2 -110.324 -348.92 13.7944 -406.479L13.3737 -407.387ZM72.8364 -389.865C60.6748 -409.914 34.6258 -417.242 13.3737 -407.387L13.7944 -406.479C34.6054 -416.13 60.0958 -408.94 71.9814 -389.346L72.8364 -389.865ZM399.129 8.27812C409.825 8.36325 417.445 0.571125 420.242 -8.70788C423.039 -17.9854 421.065 -28.9088 412.413 -35.1719L411.826 -34.3618C420.046 -28.4115 421.993 -17.9795 419.285 -8.99648C416.577 -0.0148915 409.268 7.35879 399.137 7.27816L399.129 8.27812ZM-139.175 67.5999C-128.566 86.9161 -105.195 96.1432 -84.6667 88.0418L-85.0338 87.1116C-105.065 95.0168 -127.916 86.021 -138.299 67.1184L-139.175 67.5999ZM-485.253 -281.048C-493.983 -287.155 -495.422 -298.807 -491.887 -308.964C-488.352 -319.121 -479.938 -327.509 -469.278 -327.172L-469.247 -328.172C-480.507 -328.527 -489.215 -319.683 -492.831 -309.293C-496.448 -298.902 -495.065 -286.691 -485.826 -280.229L-485.253 -281.048Z" fill="url(#paint7_radial_870_250)"/>
<path d="M87.8929 -380.815L88.3375 -381.043L87.8929 -380.815ZM30.4217 -402.208L30.2436 -402.675L30.4217 -402.208ZM401.993 -3.11739L401.672 -2.73384L401.993 -3.11739ZM-102.308 84.2202L-102.458 83.7434L-102.308 84.2202ZM-476.618 -310.69C-380.298 -232.756 -225.113 -91.1966 -155.105 60.4981L-154.197 60.0791C-224.31 -91.8431 -379.66 -233.526 -475.989 -311.468L-476.618 -310.69ZM-102.157 84.697C91.1912 23.6181 218.339 25.8338 386.028 38.9153L386.106 37.9183C218.354 24.8319 91.0622 22.6101 -102.458 83.7434L-102.157 84.697ZM402.314 -3.50095C300.983 -88.2424 161.949 -238.035 88.3375 -381.043L87.4483 -380.586C161.141 -237.42 300.279 -87.5278 401.672 -2.73384L402.314 -3.50095ZM30.2436 -402.675C-97.3912 -354.001 -300.01 -341.405 -456.731 -357.359L-456.832 -356.364C-300.028 -340.402 -97.2355 -352.99 30.5999 -401.741L30.2436 -402.675ZM88.3375 -381.043C77.6057 -401.893 52.1321 -411.022 30.2436 -402.675L30.5999 -401.741C52.034 -409.915 76.9601 -400.962 87.4483 -380.586L88.3375 -381.043ZM386.028 38.9153C396.692 39.7472 404.838 32.5062 408.276 23.4452C411.713 14.3856 410.507 3.35108 402.314 -3.50095L401.672 -2.73384C409.456 3.77599 410.669 14.3185 407.341 23.0905C404.013 31.8611 396.207 38.7063 386.106 37.9183L386.028 38.9153ZM-155.105 60.4981C-145.87 80.5082 -123.202 91.3449 -102.157 84.697L-102.458 83.7434C-122.993 90.2303 -145.16 79.6606 -154.197 60.0791L-155.105 60.4981ZM-475.989 -311.468C-484.271 -318.17 -484.893 -329.893 -480.657 -339.779C-476.422 -349.664 -467.442 -357.444 -456.832 -356.364L-456.731 -357.359C-467.938 -358.5 -477.243 -350.286 -481.576 -340.173C-485.909 -330.06 -485.383 -317.782 -476.618 -310.69L-475.989 -311.468Z" fill="url(#paint8_radial_870_250)"/>
<path d="M99.8295 -373.006L100.286 -373.209L99.8295 -373.006ZM43.6455 -397.581L43.4938 -398.058L43.6455 -397.581ZM392.301 21.6768L391.96 22.0418L392.301 21.6768ZM-116.096 80.6569L-116.22 80.1724L-116.096 80.6569ZM-467.721 -334.581C-375.913 -251.379 -228.893 -101.357 -167.484 54.0175L-166.554 53.6499C-228.055 -101.958 -375.233 -252.112 -467.049 -335.322L-467.721 -334.581ZM-115.973 81.1413C80.4906 30.978 207.315 40.3053 374.009 62.7502L374.143 61.7591C207.386 39.3059 80.4183 29.9644 -116.22 80.1724L-115.973 81.1413ZM392.643 21.3118C296.214 -68.9673 165.78 -226.305 100.286 -373.209L99.3728 -372.802C164.938 -225.736 295.47 -68.2933 391.96 22.0418L392.643 21.3118ZM43.4938 -398.058C-86.6648 -356.602 -289.671 -355.365 -445.253 -380.064L-445.41 -379.076C-289.745 -354.364 -86.5659 -355.584 43.7973 -397.105L43.4938 -398.058ZM100.286 -373.209C90.7379 -394.626 65.8152 -405.167 43.4938 -398.058L43.7973 -397.105C65.6552 -404.067 90.0412 -393.733 99.3728 -372.802L100.286 -373.209ZM374.009 62.7502C384.61 64.1775 393.148 57.4038 397.088 48.5494C401.027 39.6963 400.44 28.6116 392.643 21.3118L391.96 22.0418C399.367 28.977 399.989 39.5709 396.174 48.1428C392.361 56.7135 384.184 63.1111 374.143 61.7591L374.009 62.7502ZM-167.484 54.0175C-159.383 74.5129 -137.356 86.6012 -115.973 81.1413L-116.22 80.1724C-137.086 85.5001 -158.627 73.7065 -166.554 53.6499L-167.484 54.0175ZM-467.049 -335.322C-474.944 -342.477 -474.908 -354.217 -470.126 -363.85C-465.344 -373.483 -455.943 -380.748 -445.41 -379.076L-445.253 -380.064C-456.379 -381.83 -466.13 -374.149 -471.022 -364.295C-475.914 -354.441 -476.075 -342.153 -467.721 -334.581L-467.049 -335.322Z" fill="url(#paint9_radial_870_250)"/>
<path d="M111.084 -364.718L111.551 -364.896L111.084 -364.718ZM56.3319 -392.337L56.2065 -392.821L56.3319 -392.337ZM381.474 45.4076L381.113 45.7533L381.474 45.4076ZM-129.393 76.4224L-129.49 75.9319L-129.393 76.4224ZM-457.719 -357.471C-370.612 -269.36 -232.039 -111.503 -179.242 47.0054L-178.293 46.6894C-231.17 -112.056 -369.893 -270.055 -457.008 -358.174L-457.719 -357.471ZM-129.296 76.9129C69.6227 37.5975 195.745 53.8649 360.958 85.4162L361.145 84.4339C195.871 52.8708 69.606 36.5815 -129.49 75.9319L-129.296 76.9129ZM381.836 45.0619C290.501 -50.3688 168.891 -214.622 111.551 -364.896L110.617 -364.54C168.019 -214.1 289.722 -49.7366 381.113 45.7533L381.836 45.0619ZM56.2065 -392.821C-76.0294 -358.565 -278.798 -368.461 -432.792 -401.653L-433.003 -400.676C-278.926 -367.466 -75.9864 -357.543 56.4573 -391.853L56.2065 -392.821ZM111.551 -364.896C103.191 -386.805 78.8841 -398.696 56.2065 -392.821L56.4573 -391.853C78.6641 -397.606 102.447 -385.951 110.617 -364.54L111.551 -364.896ZM360.958 85.4162C371.464 87.4226 380.361 81.1273 384.78 72.5022C389.199 63.8785 389.221 52.7782 381.836 45.0619L381.113 45.7533C388.129 53.0843 388.169 63.6962 383.89 72.0462C379.613 80.3948 371.097 86.3345 361.145 84.4339L360.958 85.4162ZM-179.242 47.0054C-172.277 67.9142 -150.946 81.1921 -129.296 76.9129L-129.49 75.9319C-150.616 80.1074 -171.478 67.1504 -178.293 46.6894L-179.242 47.0054ZM-457.008 -358.174C-464.499 -365.751 -463.819 -377.472 -458.516 -386.828C-453.213 -396.184 -443.428 -402.923 -433.003 -400.676L-432.792 -401.653C-443.805 -404.027 -453.961 -396.893 -459.386 -387.321C-464.811 -377.75 -465.646 -365.49 -457.719 -357.471L-457.008 -358.174Z" fill="url(#paint10_radial_870_250)"/>
<path d="M125.277 -352.798L125.756 -352.942L125.277 -352.798ZM72.6781 -384.324L72.5882 -384.816L72.6781 -384.324ZM365.138 75.8987L364.753 76.2173L365.138 75.8987ZM-146.632 69.6938L-146.693 69.1975L-146.632 69.6938ZM-442.548 -386.92C-362.076 -292.709 -235.345 -125.196 -194.21 36.7308L-193.241 36.4846C-234.438 -125.685 -361.309 -293.35 -441.787 -387.569L-442.548 -386.92ZM-146.571 70.1901C54.6795 45.4391 179.285 70.832 341.767 114.31L342.026 113.344C179.483 69.8497 54.7367 44.4246 -146.693 69.1975L-146.571 70.1901ZM365.524 75.5802C281.368 -26.2376 172.02 -198.897 125.756 -352.942L124.798 -352.654C171.113 -198.44 280.545 -25.6636 364.753 76.2173L365.524 75.5802ZM72.5882 -384.816C-61.788 -360.263 -263.301 -384.874 -414.475 -429.173L-414.756 -428.213C-263.501 -383.891 -61.8195 -359.241 72.768 -383.833L72.5882 -384.816ZM125.756 -352.942C119.011 -375.4 95.6329 -389.027 72.5882 -384.816L72.768 -383.833C95.3343 -387.956 118.207 -374.602 124.798 -352.654L125.756 -352.942ZM341.767 114.31C352.1 117.075 361.431 111.443 366.466 103.162C371.5 94.8823 372.328 83.813 365.524 75.5802L364.753 76.2173C371.218 84.0389 370.486 94.6257 365.611 102.642C360.738 110.658 351.813 115.963 342.026 113.344L341.767 114.31ZM-194.21 36.7308C-188.784 58.0906 -168.475 72.884 -146.571 70.1901L-146.693 69.1975C-168.067 71.8262 -187.931 57.387 -193.241 36.4846L-194.21 36.7308ZM-441.787 -387.569C-448.707 -395.671 -447.178 -407.311 -441.208 -416.257C-435.239 -425.202 -424.99 -431.212 -414.756 -428.213L-414.475 -429.173C-425.285 -432.341 -435.934 -425.964 -442.04 -416.812C-448.147 -407.661 -449.871 -395.493 -442.548 -386.92L-441.787 -387.569Z" fill="url(#paint11_radial_870_250)"/>
<path d="M138.323 -340.132L138.811 -340.241L138.323 -340.132ZM88.1062 -375.329L88.0516 -375.826L88.1062 -375.329ZM347 104.579L346.593 104.87L347 104.579ZM-163.024 61.8923L-163.05 61.393L-163.024 61.8923ZM-425.622 -414.662C-352.075 -314.953 -237.613 -138.828 -208.131 25.6201L-207.147 25.4437C-236.673 -139.251 -351.263 -315.537 -424.818 -415.256L-425.622 -414.662ZM-162.999 62.3917C39.504 52.0563 161.982 86.271 320.949 141.226L321.276 140.281C162.249 85.3053 39.6334 51.0484 -163.05 61.393L-162.999 62.3917ZM347.407 104.289C270.727 -3.27117 173.971 -183.289 138.811 -340.241L137.835 -340.022C173.034 -182.898 269.866 -2.75736 346.593 104.87L347.407 104.289ZM88.0516 -375.826C-47.7335 -360.919 -246.978 -399.838 -394.608 -454.806L-394.956 -453.869C-247.248 -398.872 -47.8378 -359.902 88.1608 -374.832L88.0516 -375.826ZM138.811 -340.241C133.685 -363.123 111.338 -378.383 88.0516 -375.826L88.1608 -374.832C110.964 -377.336 132.826 -362.385 137.835 -340.022L138.811 -340.241ZM320.949 141.226C331.059 144.721 340.767 139.769 346.38 131.868C351.991 123.968 353.607 112.986 347.407 104.289L346.593 104.87C352.483 113.132 350.998 123.64 345.565 131.289C340.132 138.936 330.852 143.591 321.276 140.281L320.949 141.226ZM-208.131 25.6201C-204.242 47.3124 -185.04 63.5166 -162.999 62.3917L-163.05 61.393C-184.557 62.4906 -203.341 46.6714 -207.147 25.4437L-208.131 25.6201ZM-424.818 -415.256C-431.142 -423.83 -428.786 -435.332 -422.194 -443.829C-415.603 -452.326 -404.951 -457.59 -394.956 -453.869L-394.608 -454.806C-405.165 -458.737 -416.241 -453.135 -422.985 -444.442C-429.728 -435.75 -432.315 -423.736 -425.622 -414.662L-424.818 -415.256Z" fill="url(#paint12_radial_870_250)"/>
<path d="M150.326 -326.695L150.821 -326.769L150.326 -326.695ZM102.723 -365.353L102.703 -365.853L102.723 -365.353ZM327.054 131.651L326.628 131.912L327.054 131.651ZM-178.678 53.0281L-178.668 52.5282L-178.678 53.0281ZM-406.942 -440.893C-340.625 -336.235 -238.896 -152.462 -221.109 13.6589L-220.115 13.5524C-237.928 -152.817 -339.774 -336.761 -406.097 -441.428L-406.942 -440.893ZM-178.688 53.528C24.0389 57.5291 143.793 100.314 298.479 166.365L298.871 165.446C144.127 99.3693 24.2392 56.5329 -178.668 52.5282L-178.688 53.528ZM327.481 131.39C258.594 18.6803 174.801 -167.725 150.821 -326.769L149.832 -326.62C173.839 -167.401 257.698 19.132 326.628 131.912L327.481 131.39ZM102.703 -365.853C-33.7959 -360.579 -229.792 -413.481 -373.168 -478.744L-373.582 -477.834C-230.13 -412.536 -33.9718 -359.571 102.742 -364.854L102.703 -365.853ZM150.821 -326.769C147.325 -349.956 126.112 -366.757 102.703 -365.853L102.742 -364.854C125.665 -365.739 146.415 -349.281 149.832 -326.62L150.821 -326.769ZM298.479 166.365C308.316 170.566 318.35 166.312 324.507 158.828C330.663 151.344 333.051 140.504 327.481 131.39L326.628 131.912C331.92 140.57 329.695 150.947 323.735 158.192C317.776 165.437 308.189 169.424 298.871 165.446L298.479 166.365ZM-221.109 13.6589C-218.763 35.5718 -200.753 53.0925 -178.688 53.528L-178.668 52.5282C-200.199 52.1032 -217.818 34.9961 -220.115 13.5524L-221.109 13.6589ZM-406.097 -441.428C-411.8 -450.428 -408.638 -461.734 -401.461 -469.744C-394.286 -477.754 -383.288 -482.252 -373.582 -477.834L-373.168 -478.744C-383.421 -483.411 -394.865 -478.606 -402.206 -470.412C-409.547 -462.217 -412.977 -450.417 -406.942 -440.893L-406.097 -441.428Z" fill="url(#paint13_radial_870_250)"/>
<path d="M162.585 -310.71L163.084 -310.745L162.585 -310.71ZM118.184 -353.008L118.204 -353.507L118.184 -353.008ZM302.552 160.165L302.106 160.392L302.552 160.165ZM-195.389 41.8356L-195.34 41.338L-195.389 41.8356ZM-383.92 -468.574C-326.078 -359.004 -239.185 -167.769 -234.577 -0.762538L-233.577 -0.79012C-238.192 -168.047 -325.188 -359.461 -383.036 -469.041L-383.92 -468.574ZM-195.438 42.3331C6.33895 62.337 122.338 114.448 271.323 192.514L271.787 191.628C122.747 113.533 6.61739 61.3597 -195.34 41.338L-195.438 42.3331ZM302.998 159.939C243.23 42.1393 174.425 -150.303 163.084 -310.745L162.086 -310.674C173.44 -150.056 242.301 42.5187 302.106 160.392L302.998 159.939ZM118.204 -353.507C-18.2849 -359.033 -209.489 -427.254 -347.261 -503.639L-347.746 -502.764C-209.9 -426.338 -18.5399 -358.043 118.164 -352.508L118.204 -353.507ZM163.084 -310.745C161.431 -334.136 141.611 -352.56 118.204 -353.507L118.164 -352.508C141.085 -351.58 160.471 -333.534 162.086 -310.674L163.084 -310.745ZM271.323 192.514C280.798 197.478 291.137 194.03 297.866 187.056C304.594 180.082 307.83 169.464 302.998 159.939L302.106 160.392C306.697 169.441 303.66 179.609 297.146 186.361C290.633 193.113 280.762 196.33 271.787 191.628L271.323 192.514ZM-234.577 -0.762538C-233.969 21.2672 -217.4 40.1559 -195.438 42.3331L-195.34 41.338C-216.769 39.2135 -232.982 20.7679 -233.577 -0.79012L-234.577 -0.762538ZM-383.036 -469.041C-388.01 -478.463 -383.964 -489.484 -376.177 -496.903C-368.391 -504.321 -357.073 -507.936 -347.746 -502.764L-347.261 -503.639C-357.114 -509.101 -368.902 -505.216 -376.867 -497.627C-384.833 -490.038 -389.184 -478.545 -383.92 -468.574L-383.036 -469.041Z" fill="url(#paint14_radial_870_250)"/>
<path d="M174.045 -292.956L174.545 -292.95L174.045 -292.956ZM133.301 -338.788L133.363 -339.284L133.301 -338.788ZM274.513 187.898L274.05 188.086L274.513 187.898ZM-211.911 28.7147L-211.82 28.2229L-211.911 28.7147ZM-357.5 -495.562C-308.936 -381.576 -238.188 -183.798 -247.434 -16.9841L-246.436 -16.9288C-237.176 -183.993 -308.012 -381.958 -356.58 -495.954L-357.5 -495.562ZM-212.001 29.2065C-12.5752 65.8611 98.7073 127.405 240.711 217.547L241.247 216.703C99.1902 126.527 -12.2167 64.9102 -211.82 28.2229L-212.001 29.2065ZM274.976 187.709C225.175 65.362 172.553 -132.12 174.545 -292.95L173.545 -292.962C171.551 -131.956 224.218 65.6632 274.05 188.086L274.976 187.709ZM133.363 -339.284C-2.199 -356.1 -187.093 -439.93 -318.062 -527.468L-318.617 -526.637C-187.579 -439.051 -2.53517 -355.134 133.24 -338.291L133.363 -339.284ZM174.545 -292.95C174.835 -316.397 156.611 -336.4 133.363 -339.284L133.24 -338.291C156.005 -335.467 173.829 -315.877 173.545 -292.962L174.545 -292.95ZM240.711 217.547C249.742 223.28 260.331 220.7 267.615 214.307C274.897 207.915 279.003 197.602 274.976 187.709L274.05 188.086C277.875 197.485 274.006 207.367 266.955 213.556C259.905 219.744 249.801 222.133 241.247 216.703L240.711 217.547ZM-247.434 -16.9841C-248.654 5.02029 -233.707 25.2169 -212.001 29.2065L-211.82 28.2229C-233 24.33 -247.629 4.60443 -246.436 -16.9288L-247.434 -16.9841ZM-356.58 -495.954C-360.756 -505.756 -355.811 -516.404 -347.437 -523.151C-339.063 -529.899 -327.484 -532.563 -318.617 -526.637L-318.062 -527.468C-327.428 -533.728 -339.497 -530.833 -348.064 -523.93C-356.631 -517.027 -361.92 -505.935 -357.5 -495.562L-356.58 -495.954Z" fill="url(#paint15_radial_870_250)"/>
<path d="M183.419 -275.5L183.917 -275.455L183.419 -275.5ZM146.36 -324.359L146.46 -324.849L146.36 -324.359ZM246.219 211.706L245.743 211.858L246.219 211.706ZM-226.364 15.2079L-226.236 14.7247L-226.364 15.2079ZM-330.776 -518.796C-291.215 -401.381 -236.049 -198.704 -258.229 -33.113L-257.238 -32.9802C-235.025 -198.82 -290.264 -401.69 -329.828 -519.115L-330.776 -518.796ZM-226.493 15.6912C-30.518 67.7311 75.6459 137.736 210.216 238.64L210.816 237.839C76.1955 136.898 -30.0867 66.8109 -226.236 14.7247L-226.493 15.6912ZM246.696 211.555C206.552 85.7075 169.434 -115.266 183.917 -275.455L182.921 -275.545C168.422 -115.18 205.575 85.9334 245.743 211.858L246.696 211.555ZM146.46 -324.849C12.6147 -352.148 -165.206 -450.091 -288.977 -547.542L-289.596 -546.756C-165.759 -449.253 12.2045 -351.211 146.26 -323.869L146.46 -324.849ZM183.917 -275.455C186.029 -298.809 169.414 -320.167 146.46 -324.849L146.26 -323.869C168.737 -319.285 184.985 -298.369 182.921 -275.545L183.917 -275.455ZM210.216 238.64C218.774 245.056 229.532 243.308 237.29 237.5C245.047 231.693 249.942 221.73 246.696 211.555L245.743 211.858C248.827 221.526 244.202 231.077 236.691 236.7C229.181 242.321 218.922 243.918 210.816 237.839L210.216 238.64ZM-258.229 -33.113C-261.155 -11.2699 -247.823 10.027 -226.493 15.6912L-226.236 14.7247C-247.05 9.19773 -260.101 -11.6049 -257.238 -32.9802L-258.229 -33.113ZM-329.828 -519.115C-333.23 -529.212 -327.472 -539.444 -318.599 -545.52C-309.726 -551.597 -297.975 -553.353 -289.596 -546.756L-288.977 -547.542C-297.828 -554.511 -310.086 -552.562 -319.164 -546.345C-328.241 -540.129 -334.376 -529.481 -330.776 -518.796L-329.828 -519.115Z" fill="url(#paint16_radial_870_250)"/>
<path d="M191.778 -256.427L192.271 -256.342L191.778 -256.427ZM158.833 -308.149L158.972 -308.63L158.833 -308.149ZM214.583 234.28L214.096 234.393L214.583 234.28ZM-240.376 -0.153037L-240.208 -0.624196L-240.376 -0.153037ZM-300.832 -540.9C-270.992 -420.647 -232.56 -214.142 -268.189 -50.9147L-267.212 -50.7014C-231.53 -214.173 -270.018 -420.877 -299.861 -541.141L-300.832 -540.9ZM-240.543 0.318122C-49.4726 68.1875 50.6201 146.628 176.501 258.183L177.164 257.435C51.2363 145.838 -48.9676 67.3056 -240.208 -0.624196L-240.543 0.318122ZM215.071 234.168C185.338 105.463 164.755 -97.8707 192.271 -256.342L191.286 -256.513C163.74 -97.8676 184.345 105.608 214.096 234.393L215.071 234.168ZM158.972 -308.63C27.8033 -346.767 -141.426 -458.904 -256.826 -566.136L-257.506 -565.404C-142.045 -458.114 27.318 -345.867 158.693 -307.669L158.972 -308.63ZM192.271 -256.342C196.282 -279.445 181.467 -302.089 158.972 -308.63L158.693 -307.669C180.721 -301.265 195.206 -279.092 191.286 -256.513L192.271 -256.342ZM176.501 258.183C184.506 265.278 195.371 264.414 203.578 259.259C211.783 254.105 217.475 244.575 215.071 234.168L214.096 234.393C216.38 244.28 210.991 253.421 203.046 258.412C195.102 263.402 184.747 264.155 177.164 257.435L176.501 258.183ZM-268.189 -50.9147C-272.888 -29.3835 -261.34 -7.0689 -240.543 0.318122L-240.208 -0.624196C-260.501 -7.8323 -271.811 -29.6313 -267.212 -50.7014L-268.189 -50.9147ZM-299.861 -541.141C-302.427 -551.482 -295.853 -561.209 -286.513 -566.541C-277.174 -571.872 -265.319 -572.663 -257.506 -565.404L-256.826 -566.136C-265.078 -573.805 -277.454 -572.863 -287.009 -567.409C-296.563 -561.955 -303.547 -551.843 -300.832 -540.9L-299.861 -541.141Z" fill="url(#paint17_radial_870_250)"/>
<path d="M198.306 -237.554L198.79 -237.43L198.306 -237.554ZM169.512 -291.698L169.689 -292.165L169.512 -291.698ZM182.611 253.432L182.116 253.506L182.611 253.432ZM-252.591 -15.9114L-252.387 -16.368L-252.591 -15.9114ZM-270.513 -559.732C-250.182 -437.511 -228.041 -228.631 -276.343 -68.6953L-275.386 -68.4062C-227.011 -228.581 -249.194 -437.664 -269.526 -559.896L-270.513 -559.732ZM-252.795 -15.4548C-67.6265 67.1698 26.0157 153.208 142.774 274.279L143.493 273.585C26.6919 152.469 -67.054 66.3302 -252.387 -16.368L-252.795 -15.4548ZM183.105 253.358C163.544 122.72 158.948 -81.601 198.79 -237.43L197.821 -237.678C157.935 -81.6774 162.542 122.787 182.116 253.506L183.105 253.358ZM169.689 -292.165C41.9093 -340.459 -118.018 -465.504 -224.665 -581.445L-225.401 -580.768C-118.697 -464.765 41.355 -339.599 169.335 -291.23L169.689 -292.165ZM198.79 -237.43C204.599 -260.149 191.602 -283.883 169.689 -292.165L169.335 -291.23C190.794 -283.12 203.498 -259.881 197.821 -237.678L198.79 -237.43ZM142.774 274.279C150.199 281.979 161.098 281.968 169.683 277.472C178.267 272.976 184.687 263.921 183.105 253.358L182.116 253.506C183.619 263.542 177.53 272.233 169.219 276.586C160.909 280.938 150.527 280.878 143.493 273.585L142.774 274.279ZM-276.343 -68.6953C-282.715 -47.5983 -272.949 -24.4478 -252.795 -15.4548L-252.387 -16.368C-272.053 -25.1432 -281.621 -47.7609 -275.386 -68.4062L-276.343 -68.6953ZM-269.526 -559.896C-271.275 -570.406 -263.959 -579.589 -254.23 -584.173C-244.502 -588.756 -232.621 -588.617 -225.401 -580.768L-224.665 -581.445C-232.292 -589.736 -244.704 -589.766 -254.656 -585.077C-264.609 -580.388 -272.363 -570.854 -270.513 -559.732L-269.526 -559.896Z" fill="url(#paint18_radial_870_250)"/>
<path d="M203.632 -216.855L204.104 -216.691L203.632 -216.855ZM179.477 -273.221L179.692 -273.673L179.477 -273.221ZM146.843 271.089L146.344 271.121L146.843 271.089ZM-264.255 -33.7813L-264.013 -34.2192L-264.255 -33.7813ZM-236.536 -577.191C-226.52 -453.696 -221.963 -243.695 -283.499 -88.3701L-282.57 -88.0018C-220.941 -243.559 -225.522 -453.766 -235.539 -577.272L-236.536 -577.191ZM-264.496 -33.3434C-86.9035 64.5094 -0.801545 158.093 105.399 288.524L106.174 287.892C-0.0657754 157.413 -86.2627 63.7207 -264.013 -34.2192L-264.496 -33.3434ZM147.342 271.056C138.798 139.238 151.342 -64.7491 204.104 -216.691L203.159 -217.019C150.34 -64.9101 137.794 139.221 146.344 271.121L147.342 271.056ZM179.692 -273.673C56.4099 -332.505 -92.4749 -470.514 -189.03 -594.984L-189.82 -594.372C-93.2135 -469.834 55.7855 -331.695 179.262 -272.77L179.692 -273.673ZM204.104 -216.691C211.796 -238.843 200.834 -263.583 179.692 -273.673L179.262 -272.77C199.965 -262.89 210.677 -238.668 203.159 -217.019L204.104 -216.691ZM105.399 288.524C112.152 296.818 123.014 297.721 131.946 293.96C140.876 290.2 148.033 281.715 147.342 271.056L146.344 271.121C147 281.247 140.204 289.398 131.558 293.039C122.912 296.679 112.571 295.749 106.174 287.892L105.399 288.524ZM-283.499 -88.3701C-291.616 -67.8813 -283.825 -43.9938 -264.496 -33.3434L-264.013 -34.2192C-282.875 -44.6117 -290.513 -67.9517 -282.57 -88.0018L-283.499 -88.3701ZM-235.539 -577.272C-236.401 -587.891 -228.341 -596.428 -218.262 -600.181C-208.184 -603.933 -196.357 -602.798 -189.82 -594.372L-189.03 -594.984C-195.935 -603.886 -208.301 -604.956 -218.611 -601.118C-228.922 -597.279 -237.447 -588.429 -236.536 -577.191L-235.539 -577.272Z" fill="url(#paint19_radial_870_250)"/>
<path d="M206.946 -197.756L207.405 -197.557L206.946 -197.756ZM187.146 -255.796L187.395 -256.229L187.146 -255.796ZM113.228 284.458L112.728 284.452L113.228 284.458ZM-273.504 -50.782L-273.23 -51.2003L-273.504 -50.782ZM-204.554 -590.512C-203.955 -466.613 -215.377 -256.873 -288.543 -106.676L-287.644 -106.238C-214.368 -256.66 -202.955 -466.607 -203.554 -590.516L-204.554 -590.512ZM-273.778 -50.3637C-104.138 60.7068 -25.3997 160.565 70.5776 298.692L71.3988 298.121C-24.6143 159.943 -103.439 59.9691 -273.23 -51.2003L-273.778 -50.3637ZM113.727 284.464C115.229 152.378 143.245 -50.0657 207.405 -197.557L206.488 -197.956C142.257 -50.3025 114.23 152.284 112.728 284.452L113.727 284.464ZM187.395 -256.229C68.9424 -324.264 -69.0199 -473.191 -155.833 -604.642L-156.668 -604.091C-69.808 -472.57 68.2582 -323.504 186.897 -255.362L187.395 -256.229ZM207.405 -197.557C216.759 -219.06 207.709 -244.562 187.395 -256.229L186.897 -255.362C206.79 -243.937 215.629 -218.971 206.488 -197.956L207.405 -197.557ZM70.5776 298.692C76.6812 307.476 87.4425 309.202 96.6344 306.131C105.825 303.06 113.606 295.144 113.727 284.464L112.728 284.452C112.612 294.599 105.216 302.209 96.3176 305.183C87.4203 308.155 77.1803 306.442 71.3988 298.121L70.5776 298.692ZM-288.543 -106.676C-298.194 -86.8634 -292.241 -62.4528 -273.778 -50.3637L-273.23 -51.2003C-291.246 -62.9966 -297.088 -86.8497 -287.644 -106.238L-288.543 -106.676ZM-203.554 -590.516C-203.606 -601.171 -194.921 -609.071 -184.586 -612.046C-174.251 -615.021 -162.545 -612.99 -156.668 -604.091L-155.833 -604.642C-162.041 -614.043 -174.29 -616.05 -184.862 -613.007C-195.435 -609.963 -204.609 -601.787 -204.554 -590.512L-203.554 -590.516Z" fill="url(#paint20_radial_870_250)"/>
<path d="M208.945 -175.671L209.384 -175.432L208.945 -175.671ZM194.267 -235.212L194.552 -235.622L194.267 -235.212ZM73.6521 296.568L73.1545 296.519L73.6521 296.568ZM-282.465 -71.0286L-282.156 -71.4215L-282.465 -71.0286ZM-166.847 -602.719C-177.023 -479.237 -206.638 -271.285 -292.587 -128.018L-291.729 -127.504C-205.652 -270.985 -176.028 -479.144 -165.85 -602.637L-166.847 -602.719ZM-282.774 -70.6357C-123.435 54.7644 -53.6775 161.091 29.926 307.04L30.7937 306.543C-52.841 160.539 -122.675 54.0903 -282.156 -71.4215L-282.774 -70.6357ZM74.1497 296.617C87.1304 165.162 132.643 -34.0784 209.384 -175.432L208.505 -175.909C131.68 -34.4001 86.1432 164.983 73.1545 296.519L74.1497 296.617ZM194.552 -235.622C82.4636 -313.699 -42.0267 -474.058 -117.082 -612.56L-117.961 -612.083C-42.8659 -473.508 81.7159 -313.001 193.981 -234.802L194.552 -235.622ZM209.384 -175.432C220.572 -196.04 213.775 -222.233 194.552 -235.622L193.981 -234.802C212.804 -221.69 219.44 -196.05 208.505 -175.909L209.384 -175.432ZM29.926 307.04C35.2427 316.322 45.8132 318.977 55.2373 316.716C64.66 314.457 73.1001 307.247 74.1497 296.617L73.1545 296.519C72.1573 306.618 64.1277 313.556 55.0041 315.744C45.8821 317.932 35.8298 315.335 30.7937 306.543L29.926 307.04ZM-292.587 -128.018C-303.924 -109.12 -300.117 -84.2845 -282.774 -70.6357L-282.156 -71.4215C-299.078 -84.7397 -302.824 -109.01 -291.729 -127.504L-292.587 -128.018ZM-165.85 -602.637C-164.975 -613.255 -155.636 -620.37 -145.081 -622.435C-134.527 -624.5 -123.042 -621.46 -117.961 -612.083L-117.082 -612.56C-122.449 -622.464 -134.476 -625.529 -145.273 -623.417C-156.07 -621.304 -165.921 -613.956 -166.847 -602.719L-165.85 -602.637Z" fill="url(#paint21_radial_870_250)"/>
<path d="M209.108 -156.106L209.527 -155.835L209.108 -156.106ZM199.041 -216.598L199.358 -216.986L199.041 -216.598ZM37.9793 304.36L37.4869 304.272L37.9793 304.36ZM-288.883 -89.4782L-288.544 -89.8462L-288.883 -89.4782ZM-132.809 -610.73C-152.43 -488.393 -197.914 -283.326 -294.602 -147.077L-293.786 -146.498C-196.953 -282.951 -151.445 -488.224 -131.822 -610.571L-132.809 -610.73ZM-289.221 -89.1102C-139.973 48.1462 -78.5799 159.512 -6.42139 311.445L-5.51809 311.016C-77.7036 159.026 -139.163 47.5324 -288.544 -89.8462L-289.221 -89.1102ZM38.4716 304.447C61.5005 174.375 122.166 -20.7861 209.527 -155.835L208.688 -156.378C121.231 -21.1808 60.5301 174.12 37.4869 304.272L38.4716 304.447ZM199.358 -216.986C93.5901 -303.432 -18.229 -472.871 -82.4354 -616.723L-83.3486 -616.316C-19.1079 -472.387 92.791 -302.794 198.725 -216.211L199.358 -216.986ZM209.527 -155.835C222.264 -175.524 217.496 -202.16 199.358 -216.986L198.725 -216.211C216.487 -201.694 221.135 -175.62 208.688 -156.378L209.527 -155.835ZM-6.42139 311.445C-1.83251 321.108 8.5031 324.566 18.0729 323.035C27.6412 321.505 36.6095 314.964 38.4716 304.447L37.4869 304.272C35.7179 314.265 27.1795 320.566 17.915 322.048C8.65191 323.529 -1.17141 320.169 -5.51809 311.016L-6.42139 311.445ZM-294.602 -147.077C-307.356 -129.104 -305.465 -104.049 -289.221 -89.1102L-288.544 -89.8462C-304.395 -104.424 -306.267 -128.91 -293.786 -146.498L-294.602 -147.077ZM-131.822 -610.571C-130.134 -621.092 -120.277 -627.468 -109.595 -628.718C-98.9137 -629.967 -87.6952 -626.054 -83.3486 -616.316L-82.4354 -616.723C-87.027 -627.01 -98.7838 -630.989 -109.711 -629.711C-120.638 -628.433 -131.024 -621.863 -132.809 -610.73L-131.822 -610.571Z" fill="url(#paint22_radial_870_250)"/>
<path d="M207.545 -134.576L207.94 -134.27L207.545 -134.576ZM202.635 -195.703L202.983 -196.062L202.635 -195.703ZM-1.94586 309.752L-2.42906 309.624L-1.94586 309.752ZM-294.298 -110.34L-293.929 -110.678L-294.298 -110.34ZM-94.6627 -616.51C-124.569 -496.273 -187.247 -295.792 -295.121 -168.216L-294.358 -167.57C-186.322 -295.337 -123.601 -496.021 -93.6923 -616.268L-94.6627 -616.51ZM-294.666 -110.002C-157.572 39.3953 -105.826 155.558 -46.787 313.054L-45.8506 312.703C-104.912 155.148 -156.713 38.8523 -293.929 -110.678L-294.666 -110.002ZM-1.46266 309.881C32.4936 182.225 109.461 -7.10053 207.94 -134.27L207.15 -134.882C108.562 -7.57303 31.5482 181.889 -2.42906 309.624L-1.46266 309.881ZM202.983 -196.062C104.912 -291.151 7.8369 -469.447 -43.9626 -618.218L-44.907 -617.889C6.92016 -469.039 104.062 -290.583 202.287 -195.344L202.983 -196.062ZM207.94 -134.27C222.297 -152.81 219.802 -179.755 202.983 -196.062L202.287 -195.344C218.756 -179.375 221.181 -153.001 207.15 -134.882L207.94 -134.27ZM-46.787 313.054C-43.0324 323.07 -33.0266 327.391 -23.3616 326.676C-13.6982 325.961 -4.2083 320.203 -1.46266 309.881L-2.42906 309.624C-5.03758 319.43 -14.0787 324.987 -23.4354 325.679C-32.7906 326.371 -42.2942 322.19 -45.8506 312.703L-46.787 313.054ZM-295.121 -168.216C-309.351 -151.387 -309.588 -126.262 -294.666 -110.002L-293.929 -110.678C-308.49 -126.545 -308.283 -151.102 -294.358 -167.57L-295.121 -168.216ZM-93.6923 -616.268C-91.1206 -626.608 -80.7587 -632.127 -70.0095 -632.468C-59.2607 -632.809 -48.4137 -627.96 -44.907 -617.889L-43.9626 -618.218C-47.6669 -628.857 -59.0447 -633.816 -70.0412 -633.468C-81.0373 -633.119 -91.9413 -627.451 -94.6627 -616.51L-93.6923 -616.268Z" fill="url(#paint23_radial_870_250)"/>
<path d="M203.947 -112.187L204.313 -111.847L203.947 -112.187ZM204.491 -173.508L204.87 -173.835L204.491 -173.508ZM-44.2198 311.756L-44.6897 311.585L-44.2198 311.756ZM-298.063 -132.666L-297.666 -132.97L-298.063 -132.666ZM-54.215 -619.081C-94.6929 -501.979 -174.948 -307.865 -293.738 -190.385L-293.035 -189.674C-174.067 -307.33 -93.7514 -501.642 -53.2698 -618.754L-54.215 -619.081ZM-298.46 -132.362C-175.192 28.6328 -133.979 148.936 -89.1769 311.058L-88.213 310.792C-133.032 148.609 -174.289 28.1683 -297.666 -132.97L-298.46 -132.362ZM-43.75 311.927C1.42174 187.796 94.9176 6.06327 204.313 -111.847L203.58 -112.527C94.0643 5.51272 0.510031 187.377 -44.6897 311.585L-43.75 311.927ZM204.87 -173.835C115.642 -277.267 34.8033 -463.488 -3.56372 -616.275L-4.53361 -616.031C33.8539 -463.162 114.745 -276.776 204.113 -173.181L204.87 -173.835ZM204.313 -111.847C220.262 -129.037 220.172 -156.097 204.87 -173.835L204.113 -173.181C219.097 -155.812 219.167 -129.327 203.58 -112.527L204.313 -111.847ZM-89.1769 311.058C-86.3277 321.368 -76.7457 326.561 -67.0555 326.708C-57.3667 326.856 -47.4025 321.964 -43.75 311.927L-44.6897 311.585C-48.1598 321.121 -57.6591 325.851 -67.0403 325.709C-76.42 325.566 -85.5143 320.557 -88.213 310.792L-89.1769 311.058ZM-293.738 -190.385C-309.407 -174.889 -311.877 -149.885 -298.46 -132.362L-297.666 -132.97C-310.758 -150.068 -308.369 -174.51 -293.035 -189.674L-293.738 -190.385ZM-53.2698 -618.754C-49.7889 -628.824 -38.9773 -633.401 -28.2404 -632.785C-17.5039 -632.168 -7.13097 -626.374 -4.53361 -616.031L-3.56372 -616.275C-6.30743 -627.201 -17.1992 -633.152 -28.1831 -633.783C-39.1667 -634.413 -50.5314 -629.737 -54.215 -619.081L-53.2698 -618.754Z" fill="url(#paint24_radial_870_250)"/>
</g>
<defs>
<radialGradient id="paint0_radial_870_250" cx="0" cy="0" r="1" gradientUnits="userSpaceOnUse" gradientTransform="translate(-93.8369 -99.8108) rotate(28.138) scale(394.25 387)">
<stop offset="0%" stop-color="white"/>
<stop offset="0.419792" stop-color="#E5E7EB"/>
<stop offset="0.664583" stop-color="#E5E7EB"/>
<stop offset="0.820833" stop-color="#E5E7EB" stop-opacity="0.1"/>
<stop offset="1" stop-color="#E5E7EB" stop-opacity="0"/>
</radialGradient>
<radialGradient id="paint1_radial_870_250" cx="0" cy="0" r="1" gradientUnits="userSpaceOnUse" gradientTransform="translate(-69.2228 -138.322) rotate(33.1872) scale(394.25 387)">
<stop offset="0%" stop-color="white"/>
<stop offset="0.419792" stop-color="#E5E7EB"/>
<stop offset="0.664583" stop-color="#E5E7EB"/>
<stop offset="0.820833" stop-color="#E5E7EB" stop-opacity="0.1"/>
<stop offset="1" stop-color="#E5E7EB" stop-opacity="0"/>
</radialGradient>
<radialGradient id="paint2_radial_870_250" cx="0" cy="0" r="1" gradientUnits="userSpaceOnUse" gradientTransform="translate(-45.5754 -163.77) rotate(38.8151) scale(394.25 387)">
<stop offset="0%" stop-color="white"/>
<stop offset="0.419792" stop-color="#E5E7EB"/>
<stop offset="0.664583" stop-color="#E5E7EB"/>
<stop offset="0.820833" stop-color="#E5E7EB" stop-opacity="0.1"/>
<stop offset="1" stop-color="#E5E7EB" stop-opacity="0"/>
</radialGradient>
<radialGradient id="paint3_radial_870_250" cx="0" cy="0" r="1" gradientUnits="userSpaceOnUse" gradientTransform="translate(-45.5753 -163.77) rotate(43.9106) scale(394.25 387)">
<stop offset="0%" stop-color="white"/>
<stop offset="0.419792" stop-color="#E5E7EB"/>
<stop offset="0.664583" stop-color="#E5E7EB"/>
<stop offset="0.820833" stop-color="#E5E7EB" stop-opacity="0.1"/>
<stop offset="1" stop-color="#E5E7EB" stop-opacity="0"/>
</radialGradient>
<radialGradient id="paint4_radial_870_250" cx="0" cy="0" r="1" gradientUnits="userSpaceOnUse" gradientTransform="translate(-45.5754 -163.77) rotate(48.7926) scale(394.25 387)">
<stop offset="0%" stop-color="white"/>
<stop offset="0.419792" stop-color="#E5E7EB"/>
<stop offset="0.664583" stop-color="#E5E7EB"/>
<stop offset="0.820833" stop-color="#E5E7EB" stop-opacity="0.1"/>
<stop offset="1" stop-color="#E5E7EB" stop-opacity="0"/>
</radialGradient>
<radialGradient id="paint5_radial_870_250" cx="0" cy="0" r="1" gradientUnits="userSpaceOnUse" gradientTransform="translate(-45.5757 -163.77) rotate(53.5575) scale(394.25 387)">
<stop offset="0%" stop-color="white"/>
<stop offset="0.419792" stop-color="#E5E7EB"/>
<stop offset="0.664583" stop-color="#E5E7EB"/>
<stop offset="0.820833" stop-color="#E5E7EB" stop-opacity="0.1"/>
<stop offset="1" stop-color="#E5E7EB" stop-opacity="0"/>
</radialGradient>
<radialGradient id="paint6_radial_870_250" cx="0" cy="0" r="1" gradientUnits="userSpaceOnUse" gradientTransform="translate(-45.5758 -163.77) rotate(58.3425) scale(394.25 387)">
<stop offset="0%" stop-color="white"/>
<stop offset="0.419792" stop-color="#E5E7EB"/>
<stop offset="0.664583" stop-color="#E5E7EB"/>
<stop offset="0.820833" stop-color="#E5E7EB" stop-opacity="0.1"/>
<stop offset="1" stop-color="#E5E7EB" stop-opacity="0"/>
</radialGradient>
<radialGradient id="paint7_radial_870_250" cx="0" cy="0" r="1" gradientUnits="userSpaceOnUse" gradientTransform="translate(-45.5758 -163.77) rotate(62.6636) scale(394.25 387)">
<stop offset="0%" stop-color="white"/>
<stop offset="0.419792" stop-color="#E5E7EB"/>
<stop offset="0.664583" stop-color="#E5E7EB"/>
<stop offset="0.820833" stop-color="#E5E7EB" stop-opacity="0.1"/>
<stop offset="1" stop-color="#E5E7EB" stop-opacity="0"/>
</radialGradient>
<radialGradient id="paint8_radial_870_250" cx="0" cy="0" r="1" gradientUnits="userSpaceOnUse" gradientTransform="translate(-45.5756 -163.77) rotate(66.6683) scale(394.25 387)">
<stop offset="0%" stop-color="white"/>
<stop offset="0.419792" stop-color="#E5E7EB"/>
<stop offset="0.664583" stop-color="#E5E7EB"/>
<stop offset="0.820833" stop-color="#E5E7EB" stop-opacity="0.1"/>
<stop offset="1" stop-color="#E5E7EB" stop-opacity="0"/>
</radialGradient>
<radialGradient id="paint9_radial_870_250" cx="0" cy="0" r="1" gradientUnits="userSpaceOnUse" gradientTransform="translate(-45.5757 -163.77) rotate(69.8762) scale(394.25 387)">
<stop offset="0%" stop-color="white"/>
<stop offset="0.419792" stop-color="#E5E7EB"/>
<stop offset="0.664583" stop-color="#E5E7EB"/>
<stop offset="0.820833" stop-color="#E5E7EB" stop-opacity="0.1"/>
<stop offset="1" stop-color="#E5E7EB" stop-opacity="0"/>
</radialGradient>
<radialGradient id="paint10_radial_870_250" cx="0" cy="0" r="1" gradientUnits="userSpaceOnUse" gradientTransform="translate(-45.5755 -163.77) rotate(73.0195) scale(394.25 387)">
<stop offset="0%" stop-color="white"/>
<stop offset="0.419792" stop-color="#E5E7EB"/>
<stop offset="0.664583" stop-color="#E5E7EB"/>
<stop offset="0.820833" stop-color="#E5E7EB" stop-opacity="0.1"/>
<stop offset="1" stop-color="#E5E7EB" stop-opacity="0"/>
</radialGradient>
<radialGradient id="paint11_radial_870_250" cx="0" cy="0" r="1" gradientUnits="userSpaceOnUse" gradientTransform="translate(-45.5754 -163.77) rotate(77.1883) scale(394.25 387)">
<stop offset="0%" stop-color="white"/>
<stop offset="0.419792" stop-color="#E5E7EB"/>
<stop offset="0.664583" stop-color="#E5E7EB"/>
<stop offset="0.820833" stop-color="#E5E7EB" stop-opacity="0.1"/>
<stop offset="1" stop-color="#E5E7EB" stop-opacity="0"/>
</radialGradient>
<radialGradient id="paint12_radial_870_250" cx="0" cy="0" r="1" gradientUnits="userSpaceOnUse" gradientTransform="translate(-45.5754 -163.77) rotate(81.2779) scale(394.25 387)">
<stop offset="0%" stop-color="white"/>
<stop offset="0.419792" stop-color="#E5E7EB"/>
<stop offset="0.664583" stop-color="#E5E7EB"/>
<stop offset="0.820833" stop-color="#E5E7EB" stop-opacity="0.1"/>
<stop offset="1" stop-color="#E5E7EB" stop-opacity="0"/>
</radialGradient>
<radialGradient id="paint13_radial_870_250" cx="0" cy="0" r="1" gradientUnits="userSpaceOnUse" gradientTransform="translate(-45.5756 -163.77) rotate(85.3303) scale(394.25 387)">
<stop offset="0%" stop-color="white"/>
<stop offset="0.419792" stop-color="#E5E7EB"/>
<stop offset="0.664583" stop-color="#E5E7EB"/>
<stop offset="0.820833" stop-color="#E5E7EB" stop-opacity="0.1"/>
<stop offset="1" stop-color="#E5E7EB" stop-opacity="0"/>
</radialGradient>
<radialGradient id="paint14_radial_870_250" cx="0" cy="0" r="1" gradientUnits="userSpaceOnUse" gradientTransform="translate(-45.5755 -163.77) rotate(89.8614) scale(394.25 387)">
<stop offset="0%" stop-color="white"/>
<stop offset="0.419792" stop-color="#E5E7EB"/>
<stop offset="0.664583" stop-color="#E5E7EB"/>
<stop offset="0.820833" stop-color="#E5E7EB" stop-opacity="0.1"/>
<stop offset="1" stop-color="#E5E7EB" stop-opacity="0"/>
</radialGradient>
<radialGradient id="paint15_radial_870_250" cx="0" cy="0" r="1" gradientUnits="userSpaceOnUse" gradientTransform="translate(-45.5755 -163.77) rotate(94.6144) scale(394.25 387)">
<stop offset="0%" stop-color="white"/>
<stop offset="0.419792" stop-color="#E5E7EB"/>
<stop offset="0.664583" stop-color="#E5E7EB"/>
<stop offset="0.820833" stop-color="#E5E7EB" stop-opacity="0.1"/>
<stop offset="1" stop-color="#E5E7EB" stop-opacity="0"/>
</radialGradient>
<radialGradient id="paint16_radial_870_250" cx="0" cy="0" r="1" gradientUnits="userSpaceOnUse" gradientTransform="translate(-45.5753 -163.77) rotate(99.071) scale(394.25 387)">
<stop offset="0%" stop-color="white"/>
<stop offset="0.419792" stop-color="#E5E7EB"/>
<stop offset="0.664583" stop-color="#E5E7EB"/>
<stop offset="0.820833" stop-color="#E5E7EB" stop-opacity="0.1"/>
<stop offset="1" stop-color="#E5E7EB" stop-opacity="0"/>
</radialGradient>
<radialGradient id="paint17_radial_870_250" cx="0" cy="0" r="1" gradientUnits="userSpaceOnUse" gradientTransform="translate(-45.5753 -163.77) rotate(103.755) scale(394.25 387)">
<stop offset="0%" stop-color="white"/>
<stop offset="0.419792" stop-color="#E5E7EB"/>
<stop offset="0.664583" stop-color="#E5E7EB"/>
<stop offset="0.820833" stop-color="#E5E7EB" stop-opacity="0.1"/>
<stop offset="1" stop-color="#E5E7EB" stop-opacity="0"/>
</radialGradient>
<radialGradient id="paint18_radial_870_250" cx="0" cy="0" r="1" gradientUnits="userSpaceOnUse" gradientTransform="translate(-45.5754 -163.77) rotate(108.247) scale(394.25 387)">
<stop offset="0%" stop-color="white"/>
<stop offset="0.419792" stop-color="#E5E7EB"/>
<stop offset="0.664583" stop-color="#E5E7EB"/>
<stop offset="0.820833" stop-color="#E5E7EB" stop-opacity="0.1"/>
<stop offset="1" stop-color="#E5E7EB" stop-opacity="0"/>
</radialGradient>
<radialGradient id="paint19_radial_870_250" cx="0" cy="0" r="1" gradientUnits="userSpaceOnUse" gradientTransform="translate(-45.5752 -163.77) rotate(113.054) scale(394.25 387)">
<stop offset="0%" stop-color="white"/>
<stop offset="0.419792" stop-color="#E5E7EB"/>
<stop offset="0.664583" stop-color="#E5E7EB"/>
<stop offset="0.820833" stop-color="#E5E7EB" stop-opacity="0.1"/>
<stop offset="1" stop-color="#E5E7EB" stop-opacity="0"/>
</radialGradient>
<radialGradient id="paint20_radial_870_250" cx="0" cy="0" r="1" gradientUnits="userSpaceOnUse" gradientTransform="translate(-45.5751 -163.77) rotate(117.414) scale(394.25 387)">
<stop offset="0%" stop-color="white"/>
<stop offset="0.419792" stop-color="#E5E7EB"/>
<stop offset="0.664583" stop-color="#E5E7EB"/>
<stop offset="0.820833" stop-color="#E5E7EB" stop-opacity="0.1"/>
<stop offset="1" stop-color="#E5E7EB" stop-opacity="0"/>
</radialGradient>
<radialGradient id="paint21_radial_870_250" cx="0" cy="0" r="1" gradientUnits="userSpaceOnUse" gradientTransform="translate(-45.5752 -163.77) rotate(122.402) scale(394.25 387)">
<stop offset="0%" stop-color="white"/>
<stop offset="0.419792" stop-color="#E5E7EB"/>
<stop offset="0.664583" stop-color="#E5E7EB"/>
<stop offset="0.820833" stop-color="#E5E7EB" stop-opacity="0.1"/>
<stop offset="1" stop-color="#E5E7EB" stop-opacity="0"/>
</radialGradient>
<radialGradient id="paint22_radial_870_250" cx="0" cy="0" r="1" gradientUnits="userSpaceOnUse" gradientTransform="translate(-45.5752 -163.77) rotate(126.803) scale(394.25 387)">
<stop offset="0%" stop-color="white"/>
<stop offset="0.419792" stop-color="#E5E7EB"/>
<stop offset="0.664583" stop-color="#E5E7EB"/>
<stop offset="0.820833" stop-color="#E5E7EB" stop-opacity="0.1"/>
<stop offset="1" stop-color="#E5E7EB" stop-opacity="0"/>
</radialGradient>
<radialGradient id="paint23_radial_870_250" cx="0" cy="0" r="1" gradientUnits="userSpaceOnUse" gradientTransform="translate(-45.5752 -163.77) rotate(131.659) scale(394.25 387)">
<stop offset="0%" stop-color="white"/>
<stop offset="0.419792" stop-color="#E5E7EB"/>
<stop offset="0.664583" stop-color="#E5E7EB"/>
<stop offset="0.820833" stop-color="#E5E7EB" stop-opacity="0.1"/>
<stop offset="1" stop-color="#E5E7EB" stop-opacity="0"/>
</radialGradient>
<radialGradient id="paint24_radial_870_250" cx="0" cy="0" r="1" gradientUnits="userSpaceOnUse" gradientTransform="translate(-45.5752 -163.77) rotate(136.76) scale(394.25 387)">
<stop offset="0%" stop-color="white"/>
<stop offset="0.419792" stop-color="#E5E7EB"/>
<stop offset="0.664583" stop-color="#E5E7EB"/>
<stop offset="0.820833" stop-color="#E5E7EB" stop-opacity="0.1"/>
<stop offset="1" stop-color="#E5E7EB" stop-opacity="0"/>
</radialGradient>
<clipPath id="clip0_870_250">
<rect width="585" height="176" fill="white"/>
</clipPath>
</defs>
</svg>
