<svg fill="none" height="176" viewBox="0 0 585 176" width="585" xmlns="http://www.w3.org/2000/svg" xmlns:xlink="http://www.w3.org/1999/xlink"><linearGradient id="a"><stop offset="0" stop-color="#fff"/><stop offset=".419792" stop-color="#e5e7eb"/><stop offset=".664583" stop-color="#e5e7eb"/><stop offset=".820833" stop-color="#e5e7eb" stop-opacity=".1"/><stop offset="1" stop-color="#e5e7eb" stop-opacity="0"/></linearGradient><radialGradient id="b" cx="0" cy="0" gradientTransform="matrix(347.65528191 185.92704876 -182.50797177 341.26212834 -93.8369 -99.8108)" gradientUnits="userSpaceOnUse" r="1" xlink:href="#a"/><radialGradient id="c" cx="0" cy="0" gradientTransform="matrix(329.94254969 215.80309637 -211.83461838 323.8751217 -69.2228 -138.322)" gradientUnits="userSpaceOnUse" r="1" xlink:href="#a"/><radialGradient id="d" cx="0" cy="0" gradientTransform="matrix(307.1888763 247.11951922 -242.57515266 301.5398735 -45.5754 -163.77)" gradientUnits="userSpaceOnUse" r="1" xlink:href="#a"/><radialGradient id="e" cx="0" cy="0" gradientTransform="matrix(284.02669545 273.42622181 -268.39809217 278.80363003 -45.5753 -163.77)" gradientUnits="userSpaceOnUse" r="1" xlink:href="#a"/><radialGradient id="f" cx="0" cy="0" gradientTransform="matrix(259.72662978 296.60603548 -291.15164421 254.9504267 -45.5754 -163.77)" gradientUnits="userSpaceOnUse" r="1" xlink:href="#a"/><radialGradient id="g" cx="0" cy="0" gradientTransform="matrix(234.19071546 317.15575242 -311.32346528 229.88410117 -45.5757 -163.77)" gradientUnits="userSpaceOnUse" r="1" xlink:href="#a"/><radialGradient id="h" cx="0" cy="0" gradientTransform="matrix(206.91832956 335.58585696 -329.41465223 203.11323663 -45.5758 -163.77)" gradientUnits="userSpaceOnUse" r="1" xlink:href="#a"/><radialGradient id="i" cx="0" cy="0" gradientTransform="matrix(181.04511961 350.22239672 -343.78203559 177.71581811 -45.5758 -163.77)" gradientUnits="userSpaceOnUse" r="1" xlink:href="#a"/><radialGradient id="j" cx="0" cy="0" gradientTransform="matrix(156.14412796 362.01115149 -355.35400286 153.27273943 -45.5756 -163.77)" gradientUnits="userSpaceOnUse" r="1" xlink:href="#a"/><radialGradient id="k" cx="0" cy="0" gradientTransform="matrix(135.64161542 370.18159688 -363.37419909 133.1472547 -45.5757 -163.77)" gradientUnits="userSpaceOnUse" r="1" xlink:href="#a"/><radialGradient id="l" cx="0" cy="0" gradientTransform="matrix(115.13922215 377.06235827 -370.12842777 113.02188706 -45.5755 -163.77)" gradientUnits="userSpaceOnUse" r="1" xlink:href="#a"/><radialGradient id="m" cx="0" cy="0" gradientTransform="matrix(87.42399995 384.43478866 -377.36528399 85.81632969 -45.5754 -163.77)" gradientUnits="userSpaceOnUse" r="1" xlink:href="#a"/><radialGradient id="n" cx="0" cy="0" gradientTransform="matrix(59.78489345 389.69068377 -382.52452662 58.6854883 -45.5754 -163.77)" gradientUnits="userSpaceOnUse" r="1" xlink:href="#a"/><radialGradient id="o" cx="0" cy="0" gradientTransform="matrix(32.0964605 392.94131842 -385.71538422 31.50622755 -45.5756 -163.77)" gradientUnits="userSpaceOnUse" r="1" xlink:href="#a"/><radialGradient id="p" cx="0" cy="0" gradientTransform="matrix(.95370021 394.24884649 -386.9988677 .93616228 -45.5755 -163.77)" gradientUnits="userSpaceOnUse" r="1" xlink:href="#a"/><radialGradient id="q" cx="0" cy="0" gradientTransform="matrix(-31.71719158 392.97211384 -385.74561333 -31.13393314 -45.5755 -163.77)" gradientUnits="userSpaceOnUse" r="1" xlink:href="#a"/><radialGradient id="r" cx="0" cy="0" gradientTransform="matrix(-62.15677373 389.31940355 -382.160074 -61.01375126 -45.5753 -163.77)" gradientUnits="userSpaceOnUse" r="1" xlink:href="#a"/><radialGradient id="s" cx="0" cy="0" gradientTransform="matrix(-93.74108153 382.94343203 -375.90135243 -92.01724426 -45.5753 -163.77)" gradientUnits="userSpaceOnUse" r="1" xlink:href="#a"/><radialGradient id="t" cx="0" cy="0" gradientTransform="matrix(-123.44522601 374.4253446 -367.53990706 -121.17514893 -45.5754 -163.77)" gradientUnits="userSpaceOnUse" r="1" xlink:href="#a"/><radialGradient id="u" cx="0" cy="0" gradientTransform="matrix(-154.38771265 362.76369262 -356.09270525 -151.54862345 -45.5752 -163.77)" gradientUnits="userSpaceOnUse" r="1" xlink:href="#a"/><radialGradient id="v" cx="0" cy="0" gradientTransform="matrix(-181.51928605 349.97687251 -343.54102641 -178.18126494 -45.5751 -163.77)" gradientUnits="userSpaceOnUse" r="1" xlink:href="#a"/><radialGradient id="w" cx="0" cy="0" gradientTransform="matrix(-211.26133337 332.86891042 -326.74766857 -207.37637543 -45.5752 -163.77)" gradientUnits="userSpaceOnUse" r="1" xlink:href="#a"/><radialGradient id="x" cx="0" cy="0" gradientTransform="matrix(-236.18158279 315.67597699 -309.87090195 -231.83835775 -45.5752 -163.77)" gradientUnits="userSpaceOnUse" r="1" xlink:href="#a"/><radialGradient id="y" cx="0" cy="0" gradientTransform="matrix(-262.05635909 294.54970236 -289.13312572 -257.2373138 -45.5752 -163.77)" gradientUnits="userSpaceOnUse" r="1" xlink:href="#a"/><radialGradient id="z" cx="0" cy="0" gradientTransform="matrix(-287.20739767 270.0832709 -265.11661595 -281.92584122 -45.5752 -163.77)" gradientUnits="userSpaceOnUse" r="1" xlink:href="#a"/><clipPath id="A"><path d="m0 0h585v176h-585z"/></clipPath><g clip-path="url(#A)"><path d="m-124.63-352.741.205-.456zm-58.285 19.065-.431-.255zm539.277 80.737-.012.5zm-340.0989 382.466-.4148-.279zm-538.8151-75.762c123.896.9663 333.475 15.036 482.7358 90.094l.4492-.894c-149.485-75.1699-359.27-89.2335-483.178-90.1999zm539.23 76.041c113.204-168.2228 214.05-245.694 353.378-339.918l-.56-.829c-139.381 94.26-240.342 171.816-353.6477 340.189zm339.696-383.245c-132.057-3.169-334.1302-33.74-480.799-99.758l-.411.912c146.8306 66.09 349.047 96.674 481.186 99.846zm-539.72-80.492c-69.525 117.584-220.184 253.6544-352.721 338.80031l.541.84135c132.608-85.19136 283.407-221.36366 353.041-339.13266zm58.921-19.266c-21.383-9.625-46.998-.899-58.921 19.266l.861.509c11.676-19.746 36.752-28.27 57.649-18.863zm494.481 143.085c8.86-5.992 10.722-16.731 7.767-25.961-2.954-9.229-10.771-17.109-21.449-17.366l-.024 1c10.144.244 17.66 7.735 20.521 16.671 2.86 8.934 1.018 19.151-7.375 24.827zm-409.8722 353.971c19.6889 9.9 44.17277 4.257 56.4942-14.053l-.8297-.558c-12.02294 17.866-35.948 23.406-55.2153 13.717zm-482.7288-91.0939c-10.654-.0831-18.443-8.8674-21.288-19.239-2.844-10.3713-.666-22.0513 8.307-27.81544l-.541-.84135c-9.478 6.08899-11.64 18.31099-8.73 28.92129 2.91 10.6098 10.97 19.8865 22.245 19.9744z" fill="url(#b)"/><path d="m-77.6359-392.981.2446-.436zm-59.7371 13.861-.406-.291zm530.079 127.888-.056.496zm-372.4406 351.0481-.3886-.3146zm-530.0564-122.8902c123.33 11.867 330.858 44.3276 472.9333 132.2311l.5261-.851c-142.2884-88.0347-350.0224-120.5074-473.3644-132.3755zm530.4451 123.2051c127.5709-157.607 234.8429-225.901 381.9239-307.498l-.486-.874c-147.135 81.627-254.531 149.9954-382.2152 307.7425zm372.1079-351.86c-131.265-14.78-329.8639-63.018-470.1533-141.688l-.4891.872c140.4436 78.757 339.1834 127.02 470.5304 141.809zm-530.541-127.682c-79.604 111.009-241.654 233.291-381.171 306.4416l.465.8856c139.591-73.1892 301.789-195.5612 381.519-306.7442zm60.3877-14.006c-20.4528-11.469-46.7357-5.031-60.3877 14.006l.813.583c13.368-18.642 39.097-24.926 59.0856-13.717zm479.9693 186.05c9.353-5.189 12.153-15.722 10.022-25.176-2.131-9.453-9.224-17.991-19.838-19.186l-.112.993c10.084 1.136 16.911 9.26 18.974 18.412s-.672 19.167-9.532 24.083zm-439.4357 316.524c18.7411 11.595 43.62671 8.128 57.5118-9.026l-.7773-.6295c-13.54877 16.7385-37.8685 20.1515-56.2084 8.8045zm-472.8383-133.2265c-10.605-1.0205-17.591-10.4562-19.512-21.0379-1.92-10.5813 1.278-22.0243 10.723-26.9764l-.465-.8856c-9.977 5.2311-13.206 17.2154-11.242 28.0406 1.965 10.8248 9.177 20.7748 20.401 21.8547z" fill="url(#c)"/><path d="m-28.9743-418.027.2861-.41zm-60.8081 7.936-.3758-.33zm514.9814 179.254-.104.489zm-405.0709 312.8325-.3559-.3512zm-515.4501-174.2787c121.572 23.9044 324.916 76.5601 457.6863 177.9723l.607-.7947c-132.9693-101.5644-336.5173-154.2523-458.1003-178.1588zm515.806 174.6299c142.412-144.3365 255.864-201.7817 410.238-268.5617l-.397-.918c-154.431 66.805-268.014 124.3122-410.5528 268.7773zm404.82-313.6727c-129.183-27.581-322.094-95.062-453.9922-187.111l-.5723.82c132.0435 92.15 325.0925 159.67 454.3555 187.269zm-515.4622-179.095c-90.1068 102.668-263.3678 208.469-409.3848 267.585l.375.927c146.096-59.148 319.513-165.023 409.7614-267.852zm61.47-8.016c-19.2294-13.42-46.0172-9.59-61.47 8.016l.7516.66c15.132-17.241 41.3531-20.971 60.1461-7.856zm459.4102 232.222c9.817-4.247 13.636-14.454 12.443-24.072-1.194-9.616-7.416-18.809-17.861-21.039l-.209.978c9.924 2.119 15.922 10.873 17.077 20.184 1.156 9.309-2.548 19.009-11.847 23.031zm-468.3577 271.9041c17.5137 13.3772 42.61935 12.3674 58.1197-3.3424l-.7118-.7024c-15.12496 15.3294-39.6622 16.3409-56.8009 3.2501zm-457.4933-178.9535c-10.455-2.0556-16.482-12.1306-17.355-22.8496-.874-10.719 3.431-21.793 13.316-25.795l-.375-.927c-10.442 4.227-14.832 15.837-13.938 26.803.894 10.965 7.096 21.5745 18.159 23.7498z" fill="url(#d)"/><path d="m-6.45768-415.548.32144-.383zm-61.27262 2.504-.345-.361zm497.0263 224.285-.148.477zm-431.25542 275.6189-.32333-.3814zm-497.93458-219.3699c118.969 34.607 316.832 105.1149 440.071 217.9185l.6752-.7377c-123.4232-112.9728-321.4872-183.5308-440.4672-218.1418zm498.2579 219.7513c154.6681-131.1177 272.7751-178.2597 432.4691-231.0643l-.314-.95c-159.754 52.8249-277.995 100.017-432.80175 231.2515zm431.0791-276.4783c-126.223-38.946-312.378-123.294-435.57924-226.694l-.64287.766c123.33711 103.514 309.62611 187.913 435.92711 226.883zm-497.5183-224.168c-98.8697 94.258-280.8417 184.253-431.5327 230.166l.291.957c150.772-45.938 332.907-135.993 431.9317-230.4zm61.93906-2.526c-17.96156-15.074-44.98356-13.639-61.93906 2.526l.69.723c16.6035-15.829 43.0523-17.215 60.60619-2.483zm436.96924 272.108c10.156-3.358 14.866-13.187 14.532-22.872-.335-9.684-5.716-19.393-15.922-22.542l-.295.955c9.697 2.992 14.894 12.245 15.217 21.621.324 9.376-4.226 18.708-13.846 21.888zm-490.656 229.2315c16.2564 14.8795 41.3525 16.1035 58.1869 1.8328l-.64665-.7628c-16.42665 13.9255-40.95675 12.7536-56.86505-1.8077zm-439.792-218.8795c-10.23-2.976-15.338-13.546-15.257-24.301.082-10.754 5.354-21.402 15.555-24.51l-.291-.957c-10.777 3.284-16.18 14.458-16.263 25.46-.084 11.001 5.151 22.119 15.977 25.269z" fill="url(#e)"/><path d="m14.8277-411.305.3528-.354zm-61.2634-2.72-.313-.39zm476.1347 265.77-.187.464zm-453.1466 237.9175-.2897-.4075zm-477.4584-260.9515c115.592 44.607 306.737 131.6984 419.9283 254.5809l.7355-.6775c-113.3608-123.0669-304.7018-210.2254-420.3038-254.8354zm477.7481 261.359c165.2659-117.4789 286.9559-154.3985 450.5649-193.421l-.232-.973c-163.67 39.0374-285.499 75.9954-450.9123 193.579zm453.0449-238.788c-122.45-49.547-300.752-149.432-414.7065-262.941l-.7057.708c114.0802 113.635 292.5112 213.582 415.0372 263.16zm-476.6357-265.697c-106.5323 85.503-295.5043 159.684-449.5563 192.607l.209.978c154.135-32.941 343.273-107.168 449.9732-192.805zm61.9292 2.756c-16.61338-16.549-43.6596-17.419-61.9292-2.756l.6259.78c17.8904-14.358 44.36122-13.489 60.5976 2.684zm412.2265 308.308c10.405-2.482 15.935-11.873 16.425-21.552.491-9.678-4.044-19.809-13.945-23.815l-.375.927c9.406 3.806 13.797 13.467 13.322 22.837-.475 9.369-5.804 18.28-15.659 20.63zm-508.3847 186.6429c14.931 16.2094 39.8319 19.5651 57.8198 6.7781l-.5794-.815c-17.5522 12.477-41.8936 9.2217-56.5049-6.6406zm-419.5683-255.5129c-9.94-3.836-14.13-14.804-13.134-25.512.997-10.708 7.155-20.869 17.584-23.097l-.209-.978c-11.016 2.354-17.351 13.028-18.37 23.982-1.02 10.955 3.25 22.478 13.769 26.537z" fill="url(#f)"/><path d="m35.1805-405.432.3811-.324zm-60.8258-7.799-.2795-.415zm452.4133 304.402-.226.446zm-471.3442 199.4537-.2548-.4302zm-454.1318-299.7097c111.487 54.054 294.737 156.722 397.33 288.5823l.789-.614c-102.747-132.0581-286.186-234.8093-397.683-288.8683zm454.3867 300.1399c174.4533-103.3448 298.7893-130.0284 465.0743-155.3256l-.15-.9886c-166.347 25.3066-290.825 52.017-465.434 155.4538zm471.3143-200.3299c-117.911-59.548-287.299-173.898-391.4314-296.481l-.7621.648c104.2465 122.718 273.7585 237.141 391.7425 296.725zm-452.9178-304.371c-113.2662 76.358-307.7472 134.586-464.0012 154.598l.127.992c156.338-20.023 350.989-78.283 464.4332-154.761zm61.4864 7.89c-15.1814-17.871-42.06184-20.985-61.4864-7.89l.559.829c19.02129-12.823 45.3284-9.757 60.1653 7.709zm385.1914 341.4853c10.575-1.6087 16.866-10.5086 18.159-20.1134 1.293-9.6032-2.385-20.0769-11.919-24.8909l-.451.892c9.058 4.575 12.631 14.5671 11.379 23.8655-1.252 9.2969-7.301 17.7344-17.318 19.2582zm-522.131 143.768c13.5327 17.3937 38.0688 22.8057 57.0567 11.5576l-.5097-.8604c-18.528 10.9755-42.5148 5.7099-55.758-11.3112zm-396.894-289.4823c-9.587-4.648-12.852-15.926-10.969-26.514s8.864-20.203 19.442-21.557l-.127-.992c-11.174 1.431-18.373 11.542-20.299 22.374-1.927 10.831 1.371 22.67 11.517 27.589z" fill="url(#g)"/><path d="m55.0577-397.854.4068-.29zm-59.9632-12.845-.24394-.437zm425.4435 341.0798-.261.426zm-486.3386 159.4406-.218-.4499zm-427.5484-336.5474c106.589 63.166 280.637 180.7618 371.873 320.7205l.837-.5461c-91.372-140.1686-265.601-257.8634-372.2-321.0354zm427.7665 336.9974c182.4665-88.43227 308.5945-104.6512 476.4105-115.9891l-.067-.9978c-167.879 11.3422-294.151 27.57595-476.7796 116.087zm486.3825-160.3165c-112.533-69.1759-271.792-197.2569-365.3355-328.0989l-.8135.581c93.646 130.987 253.023 259.151 365.626 328.3698zm-425.94944-341.0909c-119.24156 66.643-317.90156 108.445-475.28056 115.353l.044.999c157.463-6.911 356.296-48.731 475.72443-115.479zm60.61394 12.992c-13.6377-19.076-40.1648-24.421-60.61394-12.992l.48787.873c20.02467-11.191 45.98437-5.942 59.31257 12.7zm355.3635 372.4263c10.672-.7211 17.684-9.0652 19.773-18.5286 2.09-9.4619-.702-20.2054-9.801-25.7988l-.523.8519c8.644 5.3141 11.371 15.5698 9.348 24.7313-2.023 9.16-8.756 17.0635-18.864 17.7464zm-532.304 99.7122c12.034 18.4619 36.0335 25.902 55.8935 16.2769l-.4361-.8999c-19.379 9.392-42.8434 2.1435-54.6204-15.9231zm-371.363-321.5815c-9.166-5.432-11.479-16.942-8.719-27.336 2.759-10.395 10.518-19.393 21.172-19.861l-.044-.999c-11.254.494-19.272 9.969-22.095 20.603-2.823 10.633-.524 22.705 9.176 28.454z" fill="url(#h)"/><path d="m72.4089-389.606.4275-.259zm-58.8249-17.327-.2103-.454zm398.536 372.1661-.294.4051zm-496.9703 122.3436-.1835-.4651zm-400.9757-367.8057c101.527 71.018 266.219 201.3937 346.651 347.8289l.876-.4815c-80.552-146.6547-245.417-277.1424-346.954-348.1664zm401.1593 368.2708c188.6107-74.4327 315.6027-81.10221 483.7957-79.76368l.008-.99996c-168.256-1.33904-295.392 5.33444-484.1708 79.83344zm497.0797-123.2137c-107.001-77.4581-256.157-217.1741-339.5766-354.6931l-.855.519c83.5106 137.669 232.7776 277.478 339.8446 354.9842zm-399.0393-372.2151c-123.9237 57.47-325.1687 84.184-482.6207 79.215l-.031 1c157.536 4.972 358.954-21.748 483.0724-79.307zm59.4627 17.522c-12.1616-20.049-38.2106-27.377-59.4627-17.522l.4207.908c20.811-9.651 46.3014-2.461 58.187 17.133zm326.2926 398.14312c10.696.08513 18.316-7.706995 21.113-16.986 2.797-9.27752.823-20.20092-7.829-26.46402l-.587.8101c8.22 5.9503 10.167 16.3823 7.459 25.36532-2.708 8.9815885-10.017 16.35527-20.148 16.27464zm-538.304 59.32178c10.609 19.3162 33.98 28.5433 54.5083 20.4419l-.3671-.9302c-20.0312 7.9052-42.8822-1.0906-53.2652-19.9932zm-346.078-348.6479c-8.73-6.107-10.169-17.759-6.634-27.916s11.949-18.545 22.609-18.208l.031-1c-11.26-.355-19.968 8.489-23.584 18.879-3.617 10.391-2.234 22.602 7.005 29.064z" fill="url(#i)"/><path d="m87.8929-380.815.4446-.228zm-57.4712-21.393-.1781-.467zm371.5713 399.09061-.321.38355zm-504.301 87.33759-.15-.4768zm-374.31-394.9102c96.32 77.934 251.505 219.4934 321.513 371.1881l.908-.419c-70.113-151.9222-225.463-293.6051-321.792-371.5471zm374.461 395.387c193.3482-61.0789 320.496-58.8632 488.185-45.7817l.078-.997c-167.752-13.0864-295.0438-15.3082-488.564 45.8251zm504.471-88.19795c-101.331-84.74145-240.365-234.53405-313.9765-377.54205l-.8892.457c73.6927 143.166 212.8307 293.0582 314.2237 377.85216zm-372.0704-399.17405c-127.6348 48.674-330.2536 61.27-486.9746 45.316l-.101.995c156.804 15.962 359.5965 3.374 487.4319-45.377zm58.0939 21.632c-10.7318-20.85-36.2054-29.979-58.0939-21.632l.3563.934c21.4341-8.174 46.3602.779 56.8484 21.155zm297.6905 419.9583c10.664.8319 18.81-6.4091 22.248-15.4701 3.437-9.0596 2.231-20.09412-5.962-26.94615l-.642.76711c7.784 6.50983 8.997 17.05234 5.669 25.82434-3.328 8.7706-11.134 15.6158-21.235 14.8278zm-541.133 21.5828c9.235 20.0101 31.903 30.8468 52.948 24.1989l-.301-.9536c-20.535 6.4869-42.702-4.0828-51.739-23.6643zm-320.884-371.9661c-8.282-6.702-8.904-18.425-4.668-28.311 4.235-9.885 13.215-17.665 23.825-16.585l.101-.995c-11.207-1.141-20.512 7.073-24.845 17.186s-3.807 22.391 4.958 29.483z" fill="url(#j)"/><path d="m99.8295-373.006.4565-.203zm-56.184-24.575-.1517-.477zm348.6555 419.2578-.341.365zm-508.397 58.9801-.124-.4845zm-351.625-415.2379c91.808 83.202 238.828 233.224 300.237 388.5985l.93-.3676c-61.501-155.6079-208.679-305.7619-300.495-388.9719zm351.748 415.7223c196.4636-50.1633 323.288-40.836 489.982-18.3911l.134-.9911c-166.757-22.4532-293.7247-31.7947-490.363 18.4133zm508.616-59.8295c-96.429-90.2791-226.863-247.6168-292.357-394.5208l-.9132.407c65.5652 147.066 196.0972 304.5087 292.5872 394.8438zm-349.1492-419.3698c-130.1586 41.456-333.1648 42.693-488.7468 17.994l-.157.988c155.665 24.712 358.8441 23.492 489.2073-18.029zm56.7922 24.849c-9.5481-21.417-34.4708-31.958-56.7922-24.849l.3035.953c21.8579-6.962 46.2439 3.372 55.5755 24.303zm273.723 435.9592c10.601 1.4273 19.139-5.3464 23.079-14.2008 3.939-8.8531 3.352-19.9378-4.445-27.2376l-.683.73c7.407 6.9352 8.029 17.5291 4.214 26.101-3.813 8.5707-11.99 14.9683-22.031 13.6163zm-541.493-8.7327c8.101 20.4954 30.128 32.5837 51.511 27.1238l-.247-.9689c-20.866 5.3277-42.407-6.4659-50.334-26.5225zm-299.565-389.3395c-7.895-7.155-7.859-18.895-3.077-28.528s14.183-16.898 24.716-15.226l.157-.988c-11.126-1.766-20.877 5.915-25.769 15.769s-5.053 22.142 3.301 29.714z" fill="url(#k)"/><path d="m111.084-364.718.467-.178zm-54.7521-27.619-.1254-.484zm325.1421 437.7446-.361.3457zm-510.867 31.0148-.097-.4905zm-328.326-433.8934c87.107 88.111 225.68 245.968 278.477 404.4764l.949-.316c-52.877-158.7454-191.6-316.7444-278.715-404.8634zm328.423 434.3839c198.9187-39.3154 325.041-23.048 490.254 8.5033l.187-.9823c-165.274-31.5631-291.539-47.8524-490.635-8.502zm511.132-31.851c-91.335-95.4307-212.945-259.6839-270.285-409.9579l-.934.356c57.402 150.44 179.105 314.8034 270.496 410.2933zm-325.6295-437.8829c-132.2359 34.256-335.0045 24.36-488.9985-8.832l-.211.977c154.077 33.21 357.0166 43.133 489.4603 8.823zm55.3445 27.925c-8.36-21.909-32.6669-33.8-55.3445-27.925l.2508.968c22.2068-5.753 45.9897 5.902 54.1597 27.313zm249.407 450.3122c10.506 2.0064 19.403-4.2889 23.822-12.914 4.419-8.6237 4.441-19.724-2.944-27.4403l-.723.6914c7.016 7.331 7.056 17.9429 2.777 26.2929-4.277 8.3486-12.793 14.2883-22.745 12.3877zm-540.2-38.4108c6.965 20.9088 28.296 34.1867 49.946 29.9075l-.194-.981c-21.126 4.1755-41.988-8.7815-48.803-29.2425zm-277.766-405.1794c-7.491-7.577-6.811-19.298-1.508-28.654s15.088-16.095 25.513-13.848l.211-.977c-11.013-2.374-21.169 4.76-26.594 14.332-5.425 9.571-6.26 21.831 1.667 29.85z" fill="url(#l)"/><path d="m125.277-352.798.479-.144zm-52.5989-31.526-.0899-.492zm292.4599 460.2227-.385.3186zm-511.77-6.2049-.061-.4963zm-295.916-456.6138c80.472 94.211 207.203 261.724 248.338 423.6508l.969-.2462c-41.197-162.1696-168.068-329.8346-248.546-424.0536zm295.977 457.1101c201.2505-24.751 325.856.6419 488.338 44.1199l.259-.966c-162.543-43.4943-287.2893-68.9194-488.719-44.1465zm512.095 5.3901c-84.156-101.8178-193.504-274.4772-239.768-428.5222l-.958.288c46.315 154.214 155.747 326.9904 239.955 428.8713zm-292.9358-460.3962c-134.3762 24.553-335.8892-.058-487.0632-44.357l-.281.96c151.255 44.322 352.9365 68.972 487.524 44.38zm53.1678 31.874c-6.745-22.458-30.1231-36.085-53.1678-31.874l.1798.983c22.5663-4.123 45.439 9.231 52.03 31.179zm216.011 467.252c10.333 2.765 19.664-2.867 24.699-11.148 5.034-8.2797 5.862-19.349-.942-27.5818l-.771.6371c6.465 7.8216 5.733 18.4084.858 26.4247-4.873 8.016-13.798 13.321-23.585 10.702zm-535.977-77.5792c5.426 21.3598 25.735 36.1532 47.639 33.4593l-.122-.9926c-21.374 2.6287-41.238-11.8105-46.548-32.7129zm-247.577-424.2998c-6.92-8.102-5.391-19.742.579-28.688 5.969-8.945 16.218-14.955 26.452-11.956l.281-.96c-10.81-3.168-21.459 3.209-27.565 12.361-6.107 9.151-7.831 21.319-.508 29.892z" fill="url(#m)"/><path d="m138.323-340.132.488-.109zm-50.2168-35.197-.0546-.497zm258.8938 479.908-.407.291zm-510.024-42.6867-.026-.4993zm-262.598-476.5543c73.547 99.709 188.009 275.834 217.491 440.2821l.984-.1764c-29.526-164.6947-144.116-340.9807-217.671-440.6997zm262.623 477.0537c202.503-10.3354 324.981 23.8793 483.948 78.8343l.327-.945c-159.027-54.9757-281.6426-89.2326-484.326-78.888zm510.406 41.8973c-76.68-107.56017-173.436-287.578-208.596-444.53l-.976.219c35.199 157.124 132.031 337.26464 208.758 444.892zm-259.3554-480.115c-135.7851 14.907-335.0296-24.012-482.6596-78.98l-.348.937c147.708 54.997 347.1182 93.967 483.1168 79.037zm50.7594 35.585c-5.126-22.882-27.473-38.142-50.7594-35.585l.1092.994c22.8032-2.504 44.6652 12.447 49.6742 34.81zm182.138 481.467c10.11 3.495 19.818-1.457 25.431-9.358 5.611-7.9 7.227-18.882 1.027-27.579l-.814.581c5.89 8.262 4.405 18.77-1.028 26.419-5.433 7.647-14.713 12.302-24.289 8.992zm-529.08-115.6059c3.889 21.6923 23.091 37.8965 45.132 36.7716l-.051-.9987c-21.507 1.0976-40.291-14.7216-44.097-35.9493zm-216.687-440.8761c-6.324-8.574-3.968-20.076 2.624-28.573 6.591-8.497 17.243-13.761 27.238-10.04l.348-.937c-10.557-3.931-21.633 1.671-28.377 10.364-6.743 8.692-9.33 20.706-2.637 29.78z" fill="url(#n)"/><path d="m150.326-326.695.495-.074zm-47.603-38.658-.02-.5zm224.331 497.004-.426.261zm-505.732-78.6229.01-.4999zm-228.264-493.9211c66.317 104.658 168.046 288.431 185.833 454.5519l.994-.1065c-17.813-166.3694-119.659-350.3134-185.982-454.9804zm228.254 494.421c202.7269 4.0011 322.481 46.786 477.167 112.837l.392-.919c-154.744-66.0767-274.6318-108.9131-477.539-112.9178zm506.169 77.862c-68.887-112.7097-152.68-299.115-176.66-458.159l-.989.149c24.007 159.219 107.866 345.752 176.796 458.532zm-224.778-497.243c-136.4989 5.274-332.495-47.628-475.871-112.891l-.414.91c143.452 65.298 339.6102 118.263 476.324 112.98zm48.118 39.084c-3.496-23.187-24.709-39.988-48.118-39.084l.039.999c22.923-.885 43.673 15.573 47.09 38.234zm147.658 493.134c9.837 4.201 19.871-.053 26.028-7.537 6.156-7.484 8.544-18.324 2.974-27.438l-.853.522c5.292 8.658 3.067 19.035-2.893 26.28-5.959 7.245-15.546 11.232-24.864 7.254zm-519.588-152.7061c2.346 21.9129 20.356 39.4336 42.421 39.8691l.02-.9998c-21.531-.425-39.15-17.5321-41.447-38.9758zm-184.988-455.0869c-5.703-9-2.541-20.306 4.636-28.316 7.175-8.01 18.173-12.508 27.879-8.09l.414-.91c-10.253-4.667-21.697.138-29.038 8.332-7.341 8.195-10.771 19.995-4.736 29.519z" fill="url(#o)"/><path d="m162.585-310.71.499-.035zm-44.401-42.298.02-.499zm184.368 513.173-.446.227zm-497.941-118.3294.049-.4976zm-188.531-510.4096c57.842 109.57 144.735 300.805 149.343 467.811462l1-.027582c-4.615-167.25688-91.611-358.67088-149.459-468.25088zm188.482 510.9071c201.77695 20.0039 317.776 72.1149 466.761 150.1809l.464-.886c-149.04-78.095-265.16961-130.2683-467.127-150.29zm498.436 117.6059c-59.768-117.7997-128.573-310.242-139.914-470.684l-.998.071c11.354 160.618 80.215 353.1927 140.02 471.066zm-184.794-513.446c-136.4889-5.526-327.693-73.747-465.465-150.132l-.485.875c137.846 76.426 329.2061 144.721 465.91 150.256zm44.88 42.762c-1.653-23.391-21.473-41.815-44.88-42.762l-.04.999c22.921.928 42.307 18.974 43.922 41.834zm108.239 503.259c9.475 4.964 19.814 1.516 26.543-5.458 6.728-6.974 9.964-17.592 5.132-27.117l-.892.453c4.591 9.049 1.554 19.217-4.96 25.969-6.513 6.752-16.384 9.969-25.359 5.267zm-505.9-193.276538c.608 22.029738 17.177 40.918438 39.139 43.095638l.098-.9951c-21.429-2.1245-37.642-20.5701-38.237-42.12812zm-148.459-468.278462c-4.974-9.422-.928-20.443 6.859-27.862 7.786-7.418 19.104-11.033 28.431-5.861l.485-.875c-9.853-5.462-21.641-1.577-29.606 6.012-7.966 7.589-12.317 19.082-7.053 29.053z" fill="url(#p)"/><path d="m174.045-292.956.5.006zm-40.744-45.832.062-.496zm141.212 526.686-.463.188zm-486.424-159.1833.091-.4918zm-145.589-524.2767c48.564 113.986 119.312 311.764 110.066 478.5779l.998.0553c9.26-167.0642-61.576-365.0292-110.144-479.0252zm145.499 524.7685c199.4258 36.6546 310.7083 98.1985 452.712 188.3405l.536-.844c-142.0568-90.176-253.4637-151.7928-453.067-188.4801zm486.977 158.5025c-49.801-122.347-102.423-319.829-100.431-480.659l-1-.012c-1.994 161.006 50.673 358.6252 100.505 481.048zm-141.613-526.993c-135.562-16.816-320.456-100.646-451.425-188.184l-.555.831c131.038 87.586 316.08183 171.503 451.857 188.346zm41.182 46.334c.29-23.447-17.934-43.45-41.182-46.334l-.123.993c22.765 2.824 40.589 22.414 40.305 45.329zm66.166 510.497c9.031 5.733 19.62 3.153 26.904-3.24 7.282-6.392 11.388-16.705 7.361-26.598l-.926.377c3.825 9.399-.044 19.281-7.095 25.47-7.05 6.188-17.154 8.577-25.708 3.147zm-488.145-234.5311c-1.22 22.00439 13.727 42.201 35.433 46.1906l.181-.9836c-21.18-3.8929-35.809-23.61847-34.616-45.1517zm-109.146-478.9699c-4.176-9.802.769-20.45 9.143-27.197 8.374-6.748 19.953-9.412 28.82-3.486l.555-.831c-9.366-6.26-21.435-3.365-30.002 3.538s-13.856 17.995-9.436 28.368z" fill="url(#q)"/><path d="m183.419-275.5.498.045zm-37.059-48.859.1-.49zm99.859 536.065-.476.152zm-472.583-196.4981.128-.4832zm-104.412-534.0039c39.561 117.415 94.727 320.092 72.547 485.683l.991.1328c22.213-165.8398-33.026-368.7098-72.59-486.1348zm104.283 534.4872c195.975 52.0399 302.1389 122.0448 436.709 222.9488l.6-.801c-134.6205-100.941-240.9027-171.0281-437.052-223.1143zm473.189 195.8638c-40.144-125.8475-77.262-326.821-62.779-487.01l-.996-.09c-14.499 160.365 22.654 361.4784 62.822 487.403zm-100.236-536.404c-133.8453-27.299-311.666-125.242-435.437-222.693l-.619.786c123.837 97.503 301.8005 195.545 435.856 222.887zm37.457 49.394c2.112-23.354-14.503-44.712-37.457-49.394l-.2.98c22.477 4.584 38.725 25.5 36.661 48.324zm26.299 514.095c8.558 6.416 19.316 4.668 27.074-1.14 7.757-5.807 12.652-15.77 9.406-25.945l-.953.303c3.084 9.668-1.541 19.219-9.052 24.842-7.51 5.621-17.769 7.218-25.875 1.139zm-468.445-271.753c-2.926 21.8431 10.406 43.14 31.736 48.8042l.257-.9665c-20.814-5.52697-33.865-26.3296-31.002-47.7049zm-71.599-486.002c-3.402-10.097 2.356-20.329 11.229-26.405 8.873-6.077 20.624-7.833 29.003-1.236l.619-.786c-8.851-6.969-21.109-5.02-30.187 1.197-9.077 6.216-15.212 16.864-11.612 27.549z" fill="url(#r)"/><path d="m191.778-256.427.493.085zm-32.945-51.722.139-.481zm55.75 542.429-.487.113zm-454.959-234.433037.168-.471159zm-60.456-540.746963c29.84 120.253 68.272 326.758 32.643 489.9853l.977.2133c35.682-163.4716-2.806-370.1756-32.649-490.4396zm60.289 541.218122c191.0704 67.869378 291.1631 146.309878 417.044 257.864878l.663-.748c-125.9277-111.597-226.1316-190.1294-417.372-258.059196zm455.614 233.849878c-29.733-128.705-50.316-332.0387-22.8-490.51l-.985-.171c-27.546 158.6454-6.941 362.121 22.81 490.906zm-56.099-542.798c-131.1687-38.137-300.398-150.274-415.798-257.506l-.68.732c115.461 107.29 284.824 219.537 416.199 257.735zm33.299 52.288c4.011-23.103-10.804-45.747-33.299-52.288l-.279.961c22.028 6.404 36.513 28.577 32.593 51.156zm-15.77 514.525c8.005 7.095 18.87 6.231 27.077 1.076 8.205-5.154 13.897-14.684 11.493-25.091l-.975.225c2.284 9.887-3.105 19.028-11.05 24.019-7.944 4.99-18.299 5.743-25.882-.977zm-444.69-309.0977c-4.699 21.5312 6.849 43.8458 27.646 51.232822l.335-.942318c-20.293-7.208104-31.603-29.007104-27.004-50.077204zm-31.672-490.2263c-2.566-10.341 4.008-20.068 13.348-25.4 9.339-5.331 21.194-6.122 29.007 1.137l.68-.732c-8.252-7.669-20.628-6.727-30.183-1.273-9.554 5.454-16.538 15.566-13.823 26.509z" fill="url(#s)"/><path d="m198.306-237.554.484.124zm-28.794-54.144.177-.467zm13.099 545.13-.495.074zm-435.202-269.3434.204-.4566zm-17.922-543.8206c20.331 122.221 42.472 331.101-5.83 491.0367l.957.2891c48.375-160.1748 26.192-369.2578 5.86-491.4898zm17.718 544.2772c185.1685 82.6246 278.8107 168.6628 395.569 289.7338l.719-.694c-116.8011-121.116-210.547-207.2548-395.88-289.953zm435.9 268.8128c-19.561-130.638-24.157-334.959 15.685-490.788l-.969-.248c-39.886 156.0006-35.279 360.465-15.705 491.184zm-13.416-545.523c-127.7797-48.294-287.707-173.339-394.354-289.28l-.736.677c106.704 116.003 266.756 241.169 394.736 289.538zm29.101 54.735c5.809-22.719-7.188-46.453-29.101-54.735l-.354.935c21.459 8.11 34.163 31.349 28.486 53.552zm-56.016 511.709c7.425 7.7 18.324 7.689 26.909 3.193 8.584-4.496 15.004-13.551 13.422-24.114l-.989.148c1.503 10.036-4.586 18.727-12.897 23.08-8.31 4.352-18.692 4.292-25.726-3.001zm-419.117-342.9743c-6.372 21.097 3.394 44.2475 23.548 53.2405l.408-.9132c-19.666-8.7752-29.234-31.3929-22.999-52.0382zm6.817-491.2007c-1.749-10.51 5.567-19.693 15.296-24.277 9.728-4.583 21.609-4.444 28.829 3.405l.736-.677c-7.627-8.291-20.039-8.321-29.991-3.632-9.953 4.689-17.707 14.223-15.857 25.345z" fill="url(#t)"/><path d="m203.632-216.855.472.164zm-24.155-56.366.215-.452zm-32.634 544.31-.499.032zm-411.098-304.8703.242-.4379zm27.719-543.4097c10.016 123.495 14.573 333.496-46.963 488.8209l.929.3683c61.629-155.5572 57.048-365.7642 47.031-489.2702zm-27.96 543.8476c177.5925 97.8528 263.694455 191.4364 369.895 321.8674l.775-.632c-106.2397754-130.479-192.4367-224.1713-370.187-322.1112zm411.838 304.3994c-8.544-131.818 4-335.8051 56.762-487.747l-.945-.328c-52.819 152.1089-65.365 356.24-56.815 488.14zm32.35-544.729c-123.2821-58.832-272.1669-196.841-368.722-321.311l-.79.612c96.6065 124.538 245.6055 262.677 369.082 321.602zm24.412 56.982c7.692-22.152-3.27-46.892-24.412-56.982l-.43.903c20.703 9.88 31.415 34.102 23.897 55.751zm-98.705 505.215c6.753 8.294 17.615 9.197 26.547 5.436 8.93-3.76 16.087-12.245 15.396-22.904l-.998.065c.656 10.126-6.14 18.277-14.786 21.918-8.646 3.64-18.987 2.71-25.384-5.147zm-388.898-376.8941c-8.117 20.4888-.326 44.3763 19.003 55.0267l.483-.8758c-18.862-10.3925-26.5-33.7325-18.557-53.7826zm47.96-488.9019c-.862-10.619 7.198-19.156 17.277-22.909 10.078-3.752 21.905-2.617 28.442 5.809l.79-.612c-6.905-8.902-19.271-9.972-29.581-6.134-10.311 3.839-18.836 12.689-17.925 23.927z" fill="url(#u)"/><path d="m206.946-197.756.459.199zm-19.8-58.04.249-.433zm-73.918 540.254-.5-.006zm-386.732-335.24.274-.4183zm68.95-539.73c.599 123.899-10.823 333.639-83.989 483.836l.899.438c73.276-150.422 84.689-360.369 84.09-484.278zm-69.224 540.1483c169.64 111.0705 248.3783 210.9287 344.3556 349.0557l.8212-.571c-96.0131-138.178-174.8378-238.1519-344.6288-349.3213zm387.505 334.8277c1.502-132.086 29.518-334.5297 93.678-482.021l-.917-.399c-64.231 147.6535-92.258 350.24-93.76 482.408zm73.668-540.693c-118.4526-68.035-256.4149-216.962-343.228-348.413l-.835.551c86.86 131.521 224.9262 280.587 343.565 348.729zm20.01 58.672c9.354-21.503.304-47.005-20.01-58.672l-.498.867c19.893 11.425 28.732 36.391 19.591 57.406zm-136.8274 496.249c6.1036 8.784 16.8649 10.51 26.0568 7.439 9.1906-3.071 16.9716-10.987 17.0926-21.667l-.999-.012c-.116 10.147-7.512 17.757-16.4104 20.731-8.8973 2.972-19.1373 1.259-24.9188-7.062zm-359.1206-405.368c-9.651 19.8126-3.698 44.2232 14.765 56.3123l.548-.8366c-18.016-11.7963-23.858-35.6494-14.414-55.0377zm84.989-483.84c-.052-10.655 8.633-18.555 18.968-21.53s22.041-.944 27.918 7.955l.835-.551c-6.208-9.401-18.457-11.408-29.029-8.365-10.573 3.044-19.747 11.22-19.692 22.495z" fill="url(#v)"/><path d="m208.945-175.671.439.239zm-14.678-59.541.285-.41zm-120.6149 531.78-.4976-.049zm-356.1171-367.5966.309-.3929zm115.618-531.6904c-10.176 123.482-39.791 331.434-125.74 474.701l.858.514c86.077-143.481 115.701-351.64 125.879-475.133zm-115.927 532.0833c159.339 125.4001 229.0965 231.7267 312.7 377.6757l.8677-.497c-83.6347-146.004-153.4687-252.4527-312.9497-377.9645zm356.9237 367.2527c12.9807-131.455 58.4933-330.6954 135.2343-472.049l-.879-.477c-76.825 141.5089-122.3618 340.892-135.3505 472.428zm120.4023-532.239c-112.0884-78.077-236.5787-238.436-311.634-376.938l-.879.477c75.0951 138.575 199.6769 299.082 311.942 377.281zm14.832 60.19c11.188-20.608 4.391-46.801-14.832-60.19l-.571.82c18.823 13.112 25.459 38.752 14.524 58.893zm-179.458 482.472c5.3167 9.282 15.8872 11.937 25.3113 9.676 9.4227-2.259 17.8628-9.469 18.9124-20.099l-.9952-.098c-.9972 10.099-9.0268 17.037-18.1504 19.225-9.122 2.188-19.1743-.409-24.2104-9.201zm-322.513-435.058c-11.337 18.898-7.53 43.7335 9.813 57.3823l.618-.7858c-16.922-13.3182-20.668-37.5885-9.573-56.0825zm126.737-474.619c.875-10.618 10.214-17.733 20.769-19.798 10.554-2.065 22.039.975 27.12 10.352l.879-.477c-5.367-9.904-17.394-12.969-28.191-10.857-10.797 2.113-20.648 9.461-21.574 20.698z" fill="url(#w)"/><path d="m209.108-156.106.419.271zm-10.067-60.492.317-.388zm-161.0617 520.958-.4924-.088zm-326.8623-393.8382.339-.368zm156.074-521.2518c-19.621 122.337-65.105 327.404-161.793 463.653l.816.579c96.833-136.453 142.341-341.726 161.964-464.073zm-156.412 521.6198c149.248 137.2564 210.6411 248.6222 282.79961 400.5552l.9033-.429c-72.18551-151.99-133.64491-263.4836-283.02591-400.8622zm327.6926 393.5572c23.0289-130.072 83.6944-325.2331 171.0554-460.282l-.839-.543c-87.457 135.1972-148.1579 330.498-171.2011 460.65zm160.8864-521.433c-105.7679-86.446-217.587-255.885-281.7934-399.737l-.9132.407c64.2407 143.929 176.1396 313.522 282.0736 400.105zm10.169 61.151c12.737-19.689 7.969-46.325-10.169-61.151l-.633.775c17.762 14.517 22.41 40.591 9.963 59.833zm-215.94839 467.28c4.58888 9.663 14.92449 13.121 24.49429 11.59 9.5683-1.53 18.5366-8.071 20.3987-18.588l-.9847-.175c-1.769 9.993-10.3074 16.294-19.5719 17.776-9.26309 1.481-19.08641-1.879-23.43309-11.032zm-288.18061-458.522c-12.754 17.973-10.863 43.028 5.381 57.9668l.677-.736c-15.851-14.5778-17.723-39.0638-5.242-56.6518zm162.78-463.494c1.688-10.521 11.545-16.897 22.227-18.147 10.6813-1.249 21.8998 2.664 26.2464 12.402l.9132-.407c-4.5916-10.287-16.3484-14.266-27.2756-12.988-10.927 1.278-21.313 7.848-23.098 18.981z" fill="url(#x)"/><path d="m207.545-134.576.395.306zm-4.91-61.127.348-.359zm-204.58086 505.455-.4832-.128zm-292.35214-420.092.369-.338zm199.6353-506.17c-29.9063 120.237-92.5843 320.718-200.4583 448.294l.763.646c108.036-127.767 170.757-328.451 200.6657-448.698zm-200.0033 506.508c137.094 149.3973 188.84 265.56 247.879 423.056l.9364-.351c-59.0614-157.555-110.8624-273.8507-248.0784-423.381zm293.20334 419.883c33.95626-127.656 110.92366-316.98153 209.40266-444.151l-.79-.612c-98.588 127.30897-175.6018 316.771-209.57906 444.506zm204.44566-505.943c-98.071-95.089-195.1461-273.385-246.9456-422.156l-.9444.329c51.82716 148.85 148.969 327.306 247.194 422.545zm4.957 61.792c14.357-18.54 11.862-45.485-4.957-61.792l-.696.718c16.469 15.969 18.894 42.343 4.863 60.462zm-254.727 447.324c3.7546 10.016 13.7604 14.337 23.4254 13.622 9.6634-.715 19.1533-6.473 21.89894-16.795l-.9664-.257c-2.60852 9.806-11.64964 15.363-21.00634 16.055-9.3552.692-18.8588-3.489-22.4152-12.976zm-248.334-481.27c-14.23 16.829-14.467 41.954.455 58.214l.737-.676c-14.561-15.867-14.354-40.424-.429-56.892zm201.4287-448.052c2.5717-10.34 12.9336-15.859 23.6828-16.2 10.7488-.341 21.5958 4.508 25.1025 14.579l.9444-.329c-3.7043-10.639-15.0821-15.598-26.0786-15.25-10.9961.349-21.9001 6.017-24.6215 16.958z" fill="url(#y)"/><path d="m203.947-112.187.366.34zm.544-61.321.379-.327zm-248.7108 485.264-.4699-.171zm-253.8432-444.422.397-.304zm243.848-486.415c-40.4779 117.102-120.733 311.216-239.523 428.696l.703.711c118.968-117.656 199.2836-311.968 239.7652-429.08zm-244.245 486.719c123.268 160.9948 164.481 281.298 209.2831 443.42l.9639-.266c-44.819-162.183-86.076-282.6237-209.453-443.762zm254.71 444.289c45.17174-124.131 138.6676-305.86373 248.063-423.774l-.733-.68c-109.5157 118.03972-203.069969 299.904-248.2697 424.112zm248.62-485.762c-89.228-103.432-170.0667-289.653-208.43372-442.44l-.96989.244c38.38751 152.869 119.27861 339.255 208.64661 442.85zm-.557 61.988c15.949-17.19 15.859-44.25.557-61.988l-.757.654c14.984 17.369 15.054 43.854-.533 60.654zm-293.4899 422.905c2.8492 10.31 12.4312 15.503 22.1214 15.65 9.6888.148 19.653-4.744 23.3055-14.781l-.9397-.342c-3.4701 9.536-12.9694 14.266-22.3506 14.124-9.3797-.143-18.474-5.152-21.1727-14.917zm-204.5611-501.443c-15.669 15.496-18.139 40.5-4.722 58.023l.794-.608c-13.092-17.098-10.703-41.54 4.631-56.704zm240.4682-428.369c3.4809-10.07 14.2925-14.647 25.0294-14.031 10.7365.617 21.10943 6.411 23.70679 16.754l.96989-.244c-2.74371-10.926-13.63548-16.877-24.61938-17.508-10.9836-.63-22.3483 4.046-26.0319 14.702z" fill="url(#z)"/></g></svg>