<svg enable-background="new 0 0 1000 1000" viewBox="0 0 1000 1000" xmlns="http://www.w3.org/2000/svg"><path d="m0 0h1000v1000h-1000z" fill="#3f3d44"/><g fill="#eef2f4"><path d="m63.2 959.2c0 2.5-1.2 3.7-2.6 3.7-1.1 0-1.9-.5-2.1-1.4-.4.5-1 .8-1.8.8-1.5 0-2.6-1.2-2.6-2.8s1.1-2.8 2.6-2.8c.7 0 1.2.3 1.6.7v-.5h1.6v3.9c0 .8.3 1.4 1 1.4.9 0 1.7-.9 1.7-3 0-3-2.3-5.3-5.4-5.3s-5.6 2.4-5.6 5.7 2.5 5.7 5.9 5.7c1.1 0 2.1-.2 2.9-.4v.6c-.8.3-1.7.4-2.9.4-3.7 0-6.5-2.6-6.5-6.2 0-3.4 2.7-6.2 6.2-6.2 3.9-.2 6 2.9 6 5.7zm-4.9.3c0-.8-.6-1.4-1.3-1.4-.8 0-1.3.5-1.3 1.4 0 .8.6 1.3 1.3 1.3.8.1 1.3-.5 1.3-1.3z"/><path d="m69.4 955.1v2c-1.2-.1-2.6.5-2.6 2.4v4.3h-1.9v-8.6h1.9v1.4c.5-1.1 1.5-1.5 2.6-1.5z"/><path d="m74.6 962.3c1 0 1.8-.5 2.2-1.1l1.5.9c-.8 1.2-2.1 1.9-3.8 1.9-2.8 0-4.7-1.9-4.7-4.5 0-2.5 1.8-4.5 4.5-4.5 2.6 0 4.3 2.1 4.3 4.5 0 .3 0 .5-.1.8h-6.8c.4 1.3 1.5 2 2.9 2zm2.3-3.5c-.3-1.5-1.3-2.1-2.5-2.1-1.4 0-2.3.8-2.6 2.1z"/><path d="m88.9 955.2v8.6h-1.9v-1.2c-.7.9-1.7 1.5-3 1.5-2.3 0-4.3-2-4.3-4.5 0-2.6 1.9-4.5 4.3-4.5 1.3 0 2.3.5 3 1.4v-1.2zm-1.8 4.3c0-1.6-1.2-2.7-2.7-2.7s-2.7 1.1-2.7 2.7 1.2 2.7 2.7 2.7c1.5.1 2.7-1.1 2.7-2.7z"/><path d="m91.1 951.3h1.9v12.5h-1.9z"/><path d="m102.9 955.2-3.3 8.6h-2.1l-3.3-8.6h2l2.4 6.5 2.4-6.5z"/><path d="m104.2 955.2h1.9v8.9c0 2.4-1.2 3.5-3.5 3.3v-1.8c1.1.1 1.7-.3 1.7-1.5zm-.2-2.4c0-.7.5-1.2 1.2-1.2s1.2.5 1.2 1.2c0 .6-.5 1.2-1.2 1.2s-1.2-.6-1.2-1.2z"/><path d="m116 955.2-3.3 8.8c-.8 2.2-2.2 3.3-4.2 3.2v-1.7c1.2.1 1.9-.5 2.3-1.7l.1-.2-3.6-8.4h2l2.6 6.2 2.2-6.2z"/><path d="m211.9 938.7c0 2.1-1.5 3.8-3.6 3.8h-3v-7.6h3c2.1 0 3.6 1.7 3.6 3.8zm-1 0c0-1.6-1.1-2.9-2.6-2.9h-2v5.7h2c1.5.1 2.6-1.2 2.6-2.8z"/><path d="m219.5 940.8h-3.4l-.6 1.7h-1.1l2.8-7.6h1.1l2.8 7.6h-1.1zm-.3-.9-1.4-3.8-1.4 3.8z"/><path d="m226.4 939.4v3.1h-1v-3.1l-2.7-4.5h1.1l2.1 3.6 2.1-3.6h1.1z"/><path d="m239.5 934.9v7.6h-1v-6.5l-1.6.5-.3-.9 2-.7z"/><path d="m248.2 940.3c0 1.5-1.2 2.4-2.6 2.4-1.1 0-2.1-.5-2.5-1.6l.9-.5c.2.8.8 1.1 1.7 1.1s1.6-.5 1.6-1.4-.7-1.4-1.6-1.4h-2.2l.3-4h4.2v.9h-3.3l-.1 2h1.1c1.3.1 2.5.9 2.5 2.5z"/><path d="m58.9 938.7c0 2.1-1.5 3.8-3.6 3.8h-3v-7.6h3c2.1 0 3.6 1.7 3.6 3.8zm-1 0c0-1.6-1.1-2.9-2.6-2.9h-2v5.7h2c1.5.1 2.6-1.2 2.6-2.8z"/><path d="m67 941.6v1h-4.6v-7.6h4.5v1h-3.5v2.3h3.2v.9h-3.2v2.4z"/><path d="m70 940.8.9-.5c.3.8.9 1.4 2 1.4s1.6-.5 1.6-1.2c0-.8-.7-1-1.8-1.4-1.2-.4-2.4-.8-2.4-2.2s1.1-2.2 2.4-2.2 2.2.7 2.6 1.7l-.8.5c-.3-.7-.8-1.2-1.7-1.2-.8 0-1.4.4-1.4 1.1s.5 1 1.6 1.3c1.3.4 2.6.8 2.6 2.3 0 1.3-1.1 2.2-2.6 2.2-1.5.1-2.6-.7-3-1.8z"/><path d="m80 934.9v7.6h-1v-7.6z"/><path d="m91.3 939.2c0 1.9-1.4 3.5-3.7 3.5-2.4 0-4-1.8-4-4s1.7-4 4-4c1.4 0 2.7.8 3.3 1.8l-.9.5c-.4-.8-1.4-1.4-2.4-1.4-1.8 0-3 1.3-3 3s1.2 3 3 3c1.6 0 2.5-.9 2.7-2h-2.8v-.9h3.8z"/><path d="m100.6 934.9v7.6h-.8l-3.9-5.7v5.7h-1v-7.6h.8l3.9 5.7v-5.7z"/><path d="m109.1 941.6v1h-4.6v-7.6h4.5v1h-3.5v2.3h3.2v.9h-3.2v2.4z"/><path d="m119.2 938.7c0 2.1-1.5 3.8-3.6 3.8h-3v-7.6h3c2 0 3.6 1.7 3.6 3.8zm-1 0c0-1.6-1.1-2.9-2.6-2.9h-2v5.7h2c1.5.1 2.6-1.2 2.6-2.8z"/><path d="m133.2 940.4c0 1.2-1 2.2-2.2 2.2h-3.3v-7.6h3c1.2 0 2.1.9 2.1 2.1 0 .7-.3 1.2-.8 1.6.7.2 1.2.8 1.2 1.7zm-4.5-4.6v2.3h2c.6 0 1.1-.5 1.1-1.2 0-.6-.5-1.2-1.1-1.2h-2zm3.5 4.5c0-.7-.5-1.2-1.2-1.2h-2.3v2.5h2.3c.7 0 1.2-.6 1.2-1.3z"/><path d="m139.4 939.4v3.1h-1v-3.1l-2.7-4.5h1.1l2.1 3.6 2.1-3.6h1.1z"/><path d="m204.8 958.1c0-3.6 2.7-6.4 6.5-6.4 2.3 0 4.3 1.2 5.3 3l-1.8 1c-.7-1.2-2-2-3.6-2-2.7 0-4.4 1.9-4.4 4.4s1.8 4.4 4.4 4.4c1.6 0 2.9-.8 3.6-2l1.8 1c-1 1.8-3 3-5.3 3-3.8 0-6.5-2.8-6.5-6.4z"/><path d="m217.7 959.9c0-2.6 2.1-4.7 4.7-4.7s4.7 2 4.7 4.7c0 2.6-2.1 4.7-4.7 4.7-2.6-.1-4.7-2.1-4.7-4.7zm7.4 0c0-1.6-1.2-2.8-2.8-2.8s-2.8 1.2-2.8 2.8 1.2 2.8 2.8 2.8 2.8-1.2 2.8-2.8z"/><path d="m228.8 951.4h1.9v12.9h-1.9z"/><path d="m232.4 959.9c0-2.6 2.1-4.7 4.7-4.7s4.7 2 4.7 4.7c0 2.6-2.1 4.7-4.7 4.7-2.6-.1-4.7-2.1-4.7-4.7zm7.4 0c0-1.6-1.2-2.8-2.8-2.8s-2.8 1.2-2.8 2.8 1.2 2.8 2.8 2.8 2.8-1.2 2.8-2.8z"/><path d="m248.1 955.3v2.1c-1.3-.1-2.7.5-2.7 2.5v4.5h-1.9v-8.9h1.9v1.5c.5-1.3 1.6-1.7 2.7-1.7z"/><path d="m262.1 953.9h-3.5v10.4h-2v-10.4h-3.5v-1.9h9z"/><path d="m261.4 959.9c0-2.6 2.1-4.7 4.7-4.7s4.7 2 4.7 4.7c0 2.6-2.1 4.7-4.7 4.7-2.6-.1-4.7-2.1-4.7-4.7zm7.5 0c0-1.6-1.2-2.8-2.8-2.8s-2.8 1.2-2.8 2.8 1.2 2.8 2.8 2.8 2.8-1.2 2.8-2.8z"/><path d="m272 959.9c0-2.6 2.1-4.7 4.7-4.7s4.7 2 4.7 4.7c0 2.6-2.1 4.7-4.7 4.7-2.6-.1-4.7-2.1-4.7-4.7zm7.5 0c0-1.6-1.2-2.8-2.8-2.8s-2.8 1.2-2.8 2.8 1.2 2.8 2.8 2.8 2.8-1.2 2.8-2.8z"/><path d="m283.1 951.4h1.9v12.9h-1.9z"/><path d="m841.3 942.5h-1v-7.6h1.1l2.4 4 2.4-4h1.1v7.6h-1v-6l-2.5 4.2h-.1l-2.5-4.1zm17.5-3.8c0 2.2-1.7 4-4 4-2.2 0-3.9-1.8-3.9-4s1.7-4 3.9-4c2.3 0 4 1.8 4 4zm-1 0c0-1.7-1.3-3-2.9-3-1.7 0-2.9 1.3-2.9 3s1.3 3 2.9 3c1.7 0 2.9-1.3 2.9-3zm8.4.8 1.8 3.1h-1.1l-1.7-2.9h-1.8v2.9h-1v-7.6h3c1.3 0 2.4 1.1 2.4 2.4 0 .8-.7 1.7-1.6 2.1zm-.8-.8c.8 0 1.4-.6 1.4-1.4s-.6-1.4-1.4-1.4h-2v2.8zm10.5 2.9h-3.5v-2.4h3.2v-.9h-3.2v-2.3h3.5v-1h-4.5v7.6h4.6zm-31.7 20.6-2.5-6.7h-2.1l3.5 8.9h2.2l3.5-8.9h-2.1zm5.8 2.1h1.9v-8.9h-1.9zm1-12.6c-.7 0-1.2.5-1.2 1.2s.5 1.2 1.2 1.2 1.2-.6 1.2-1.2c0-.7-.6-1.2-1.2-1.2zm4.2 0c-.7 0-1.2.5-1.2 1.2s.5 1.2 1.2 1.2 1.2-.6 1.2-1.2c.1-.7-.5-1.2-1.2-1.2zm-.9 13c0 1.2-.5 1.7-1.7 1.6v1.8c2.4.2 3.6-1 3.6-3.4v-9.2h-1.9zm11.1-9.3h1.9v8.9h-1.9v-1.3c-.7.9-1.7 1.5-3.1 1.5-2.4 0-4.4-2-4.4-4.7 0-2.6 2-4.7 4.4-4.7 1.4 0 2.4.6 3.1 1.5zm0 4.5c0-1.6-1.2-2.8-2.8-2.8s-2.8 1.2-2.8 2.8 1.2 2.8 2.8 2.8 2.8-1.2 2.8-2.8zm7.9 2-2.6-6.4h-2.1l3.8 8.7-.1.2c-.4 1.2-1.1 1.8-2.4 1.7v1.8c2 .1 3.5-1 4.3-3.3l3.4-9.1h-2zm9 .3-2.5-6.7h-2.1l3.5 8.9h2.2l3.5-8.9h-2.1zm14.1-2.3c0 .3 0 .5-.1.8h-7c.3 1.4 1.4 2.1 2.8 2.1 1.1 0 1.9-.5 2.3-1.1l1.6.9c-.8 1.2-2.1 1.9-3.9 1.9-2.9 0-4.8-2-4.8-4.7 0-2.6 1.9-4.7 4.7-4.7 2.5.1 4.4 2.2 4.4 4.8zm-2-.8c-.3-1.5-1.4-2.2-2.5-2.2-1.4 0-2.4.8-2.7 2.2zm5.5-2.2v-1.5h-1.9v8.9h1.9v-4.5c0-2 1.5-2.6 2.7-2.5v-2.1c-1 .1-2.1.5-2.7 1.7zm13.9-1.7c-1.2 0-2.1.5-2.7 1.4-.5-.9-1.4-1.4-2.5-1.4s-2 .4-2.5 1.3v-1.1h-1.9v8.9h1.9v-5c0-1.6.9-2.3 2-2.3 1 0 1.7.7 1.7 1.9v5.4h1.9v-5c0-1.6.8-2.3 1.9-2.3 1 0 1.7.7 1.7 1.9v5.4h1.9v-5.5c-.1-2.2-1.4-3.6-3.4-3.6zm12.4.2h1.9v8.9h-1.9v-1.3c-.7.9-1.7 1.5-3.1 1.5-2.4 0-4.4-2-4.4-4.7 0-2.6 2-4.7 4.4-4.7 1.4 0 2.4.6 3.1 1.5zm0 4.5c0-1.6-1.2-2.8-2.8-2.8s-2.8 1.2-2.8 2.8 1.2 2.8 2.8 2.8 2.8-1.2 2.8-2.8zm5.3 2c-.7 0-1.3.6-1.3 1.3s.6 1.3 1.3 1.3 1.3-.6 1.3-1.3c0-.8-.6-1.3-1.3-1.3zm6.8.7c-1.6 0-2.7-1.2-2.7-2.8s1.2-2.8 2.7-2.8c1.1 0 1.9.5 2.3 1.4l1.6-1c-.7-1.4-2.2-2.3-3.9-2.3-2.7 0-4.7 2-4.7 4.7 0 2.6 2 4.7 4.7 4.7 1.7 0 3.2-.9 4-2.3l-1.6-.9c-.5.8-1.4 1.3-2.4 1.3zm14.1-2.7c0 2.6-2.1 4.7-4.7 4.7s-4.7-2-4.7-4.7c0-2.6 2.1-4.7 4.7-4.7s4.7 2 4.7 4.7zm-1.9 0c0-1.6-1.2-2.8-2.8-2.8s-2.8 1.2-2.8 2.8 1.2 2.8 2.8 2.8 2.8-1.2 2.8-2.8z"/></g><path d="m642.5 3h150v358.2h-150z" fill="#ff8603"/><path d="m762.5 60.5v50.5c0 8.3-6.7 15-15 15-8.3 0-15-6.7-15-15v-68c0-8.3-6.7-15-15-15-8.3 0-15 6.7-15 15v68c0 8.3-6.7 15-15 15-8.3 0-15-6.7-15-15v-23c0-8.3-6.7-15-15-15-8.3 0-15 6.7-15 15v38 11 212.2h150v-212.2-11-65.5c0-8.3-6.7-15-15-15-8.2 0-15 6.7-15 15z" fill="#ed5f18"/><path d="m762.5 72.5v50.5c0 8.3-6.7 15-15 15-8.3 0-15-6.7-15-15v-68c0-8.3-6.7-15-15-15-8.3 0-15 6.7-15 15v68c0 8.3-6.7 15-15 15-8.3 0-15-6.7-15-15v-23c0-8.3-6.7-15-15-15-8.3 0-15 6.7-15 15v38 11 212.2h150v-212.2-11-65.5c0-8.3-6.7-15-15-15-8.2 0-15 6.7-15 15z" fill="#ef2531"/><path d="m762.5 168.3v71.1c0 8.3-6.7 15-15 15-8.3 0-15-6.7-15-15v-36.8c0-8.3-6.7-15-15-15-8.3 0-15 6.7-15 15v36.8c0 8.3-6.7 15-15 15-8.3 0-15-6.7-15-15v-50.5c0-8.3-6.7-15-15-15-8.3 0-15 6.7-15 15v65.5 11 87.5h150v-87.5-11-86.1c0-8.3-6.7-15-15-15-8.2-0-15 6.7-15 15z" fill="#cc253d"/><path d="m762.5 72.5v50.5c0 8.3-6.7 15-15 15-8.3 0-15-6.7-15-15v-68c0-8.3-6.7-15-15-15-8.3 0-15 6.7-15 15v68c0 8.3-6.7 15-15 15-8.3 0-15-6.7-15-15v-23c0-8.3-6.7-15-15-15-8.3 0-15 6.7-15 15v38 11 212.2h150v-212.2-11-65.5c0-8.3-6.7-15-15-15-8.2 0-15 6.7-15 15z" style="fill:none;stroke:#3f2522;stroke-width:6;stroke-linecap:round;stroke-linejoin:round;stroke-miterlimit:10"/><path d="m762.5 181.3v71.1c0 8.3-6.7 15-15 15-8.3 0-15-6.7-15-15v-36.8c0-8.3-6.7-15-15-15-8.3 0-15 6.7-15 15v36.8c0 8.3-6.7 15-15 15-8.3 0-15-6.7-15-15v-50.5c0-8.3-6.7-15-15-15-8.3 0-15 6.7-15 15v65.5 11 87.5h150v-87.5-11-86.1c0-8.3-6.7-15-15-15-8.2 0-15 6.7-15 15z" fill="#38beb3"/><path d="m642.5 325h150v36.2h-150z" fill="#026060" opacity=".14"/><path d="m762.5 181.3v71.1c0 8.3-6.7 15-15 15-8.3 0-15-6.7-15-15v-36.8c0-8.3-6.7-15-15-15-8.3 0-15 6.7-15 15v36.8c0 8.3-6.7 15-15 15-8.3 0-15-6.7-15-15v-50.5c0-8.3-6.7-15-15-15-8.3 0-15 6.7-15 15v65.5 11 87.5h150v-87.5-11-86.1c0-8.3-6.7-15-15-15-8.2 0-15 6.7-15 15z" style="fill:none;stroke:#3f2522;stroke-width:6;stroke-linecap:round;stroke-linejoin:round;stroke-miterlimit:10"/><path d="m642.5 3h150v358.2h-150z" style="fill:none;stroke:#3f2522;stroke-width:6;stroke-linecap:round;stroke-linejoin:round;stroke-miterlimit:10"/><path d="m715.2 514.4v-21.7c0-14.5 11.8-26.3 26.3-26.3h77.4c14.5 0 26.3-11.8 26.3-26.3v-22.7c0-14.5-11.8-26.3-26.3-26.3h-23.7" style="fill:none;stroke:#3f2522;stroke-width:8;stroke-linecap:round;stroke-linejoin:round;stroke-miterlimit:10"/><path d="m564.4 382.1-28.2-51.1c-.9-1.7-3.3-1.7-4.2 0l-28.1 51v9.2h60.5z" fill="#f1e4e5"/><path d="m536.3 331.1c-.9-1.7-3.3-1.7-4.2 0l-3.1 5.7 26.2 47.5v6.9h9.3v-9.1z" fill="#ddd4d5"/><path d="m564.4 382.1-28.2-51.1c-.9-1.7-3.3-1.7-4.2 0l-28.1 51v9.2h60.5z" style="fill:none;stroke:#3f2522;stroke-width:6;stroke-linecap:round;stroke-linejoin:round;stroke-miterlimit:10"/><path d="m545 346.9-8.7-15.8c-.9-1.7-3.3-1.7-4.2 0l-8.7 15.8z" style="fill:none;stroke:#3f2522;stroke-width:6;stroke-linecap:round;stroke-linejoin:round;stroke-miterlimit:10"/><path d="m545 346.9-8.7-15.8c-.9-1.7-3.3-1.7-4.2 0l-8.7 15.8z" fill="#3f2522"/><path d="m292.3 642.2c-16.2 0-29.9-13.4-30.5-30.5l-5.5-141.5h72l-5.5 141.5c-.6 17.1-14.3 30.5-30.5 30.5z" fill="#6b352f"/><path d="m262.5 617.3c7.8 0 14.1-6.5 13.7-14.3l-5-118.5c-.3-8-6.9-14.3-14.9-14.3l5.5 141.5c.1 1.9.3 3.8.7 5.6z" fill="#a35d58" opacity=".48"/><path d="m328.3 470.2c-9 0-16.4 7.1-16.8 16.1l-4.5 117.5c-.7 17.2-14.3 30.5-30.5 30.5-1.5 0-3.1-.1-4.6-.4 5.4 5.1 12.6 8.2 20.4 8.2 16.2 0 29.9-13.4 30.5-30.5z" fill="#602c29"/><g opacity=".2"><path d="m259.4 549c-1.4 2.3-2.8 4.6-4.2 7.1.7-.7 2.3-2.1 4.3-3.1z" fill="none"/><path d="m333.2 470.8c-.5-1.3-3.9-4.4-5.6-5.3-.7.7-1.8 2.8-2.7 4.7h3.3l-.4 9.3c3-2.5 5.8-5.7 5.4-8.7z" fill="none"/><g fill="#dd795b"><path d="m297.1 534.7-.3.9c-2.7 6.8-9.8 24.9.6 37.9 6.1 7.6 14.9 8.7 23.4 9.7 1.1.1 2.1.3 3.2.4l.2-6c-.9-.1-1.8-.2-2.7-.3-8-1-14.8-1.8-19.4-7.5-8.3-10.3-2.3-25.5.3-31.9l.3-.8c1.2-2.9 9.9-19.1 24.3-31.6l.3-8c-17.8 13.4-28.5 33-30.2 37.2z"/><path d="m284.4 595.4c-1.4 0-2.9.1-4.3.3-7.7 1.1-13.7 5.1-18.5 10.3l.2 5.7c0 1.1.1 2.1.3 3.2 4.6-6.6 10.6-12.1 18.8-13.2 10.1-1.4 20.1 2.2 38.1 24.2 1.1-2 1.9-4.1 2.6-6.3-12.5-15-23.8-24.2-37.2-24.2z"/><path d="m274.9 527.8c10.3-13 18.4-23.3 14.2-34.8-4.4-12.1-19.3-16.9-32.7-20.3l.2 6.3c11.5 3 23.6 7.3 26.8 16.1 3 8.4-3.8 17-13.3 29-3.5 4.4-7.3 9.3-11.2 14.8l.4 10.2c5.2-8.2 10.7-15.1 15.6-21.3z"/><path d="m306.7 478.1c2-.9 2.8-2.2 3.1-3.2.5-1.6.1-3.2-.6-4.7h-6.9c.2.3.3.5.4.7.3.6.8 1.3 1 1.9-1.4.2-3.1-.9-4.9-2.6h-8.3c5.2 5.8 10.3 10.6 16.2 7.9z"/><path d="m275 496.2c-.8-5.7-5.8-9-6.3-9.3-3.2-2.1-7.3-2.9-11.8-2.4l.2 6c3.3-.4 6.1 0 8.3 1.4.9.6 3.2 2.5 3.6 5.1.5 3.7-3.6 7.6-7.6 11.4-1.1 1-2.3 2.2-3.5 3.4l.3 8.1c2.8-2.7 5.2-5.1 7.3-7.1 4.9-4.6 10.4-9.9 9.5-16.6z"/><path d="m306 483.6c-8 0-14.3-6.8-19.5-13.4h-7.5c.1.2.3.4.4.6 6.1 8 14.4 18.8 26.6 18.8 9.9 0 14.7-10.2 18.1-17.6.3-.6.5-1.2.8-1.8h-6.6c-2.8 6.2-6.4 13.4-12.3 13.4z"/><path d="m287 578.8c-4.3-6.5-5.7-16.1-4.2-28.7 1.9-15.4 13.3-31.8 19.2-38.4 10.9-12.1 21.4-20.9 25.7-24.4l.3-8c-.7.6-1.3 1.1-1.9 1.6-.6.4-14 10.6-28.5 26.7-6.3 7-18.6 24.8-20.6 41.6-1.7 14 .1 25 5.2 32.7 6.6 10.1 20.4 15.5 37.1 15.5 1.4 0 2.8 0 4.2-.1l.2-6c-16.9 1.3-30.6-3.1-36.7-12.5z"/><path d="m309.6 544.6v.2c-1.7 12.8 2.1 18.5 5.5 20.9 2.3 1.7 5.1 2.4 8.2 2.4h1.2l.2-6c-2.4.2-4.5-.1-6.1-1.2-1.7-1.2-4.5-4.9-3.1-15.3v-.1c1.2-7.9 5.6-15.4 10.6-20.8l.3-8.5c-7.6 6.1-15.1 16.7-16.8 28.4z"/><path d="m263.9 558c.2 0 .8.1 1.5 1.3 1.9 3 3 17-2.4 28.8-.6 1.3-1.3 2.6-2 3.7l.4 9c2.7-2.7 5.3-6.1 7.2-10.3 4.5-9.9 6.4-27.5 2-34.4-1.9-3-4.3-3.9-5.9-4.1-1.8-.2-3.6.3-5.1 1l.3 7c1.2-1.2 2.9-2.2 4-2z"/><path d="m304.3 617.3c-2.2-1.8-7.9-6.4-16.3-6.8-.3 0-7.3-.2-13.9 3.7-3.8 2.3-6.9 5.8-9.3 10 1 2.2 2.3 4.2 3.7 6.1 1.9-4.7 4.8-8.7 8.6-11 5-3 10.6-2.9 10.6-2.9 6.3.3 10.8 3.9 12.8 5.4 0 0 3.5 2.8 6.8 8.3 1.1 1.9 2.1 3.8 2.9 5.8 1.7-1.3 3.3-2.7 4.7-4.4-4.4-9.2-10.2-13.9-10.6-14.2z"/><path d="m296.8 626.8c-4.6-1.3-10.9-.8-14.5 3.6-2 2.5-2.9 5.7-2.6 9 2.1 1 4.3 1.7 6.5 2.2-1-2.9-.6-5.7.7-7.4 2-2.4 6-2.3 8.1-1.6 3.3 1 5.9 3.9 7.4 7.8 1.9-.7 3.7-1.6 5.4-2.6-2.1-5.4-6-9.5-11-11z"/></g></g><path d="m328.3 470.2c-24 0-48 0-72 0 .7-27.3 6.4-47.9 14.3-61.7h43.3c8 13.8 13.7 34.3 14.4 61.7z" fill="#bdced9"/><path d="m270.7 408.5c-7.9 13.8-13.6 34.3-14.3 61.7 7.2 0 13.3-5.5 13.9-12.7 1.9-21.1 7-37.4 13.6-48.9h-13.2z" fill="#fff" opacity=".26"/><path d="m315.8 424.2h-30.9c-8.5 0-15.4-6.9-15.4-15.4v-.3h46.3z" fill="#acc1cc"/><path d="m314 408.5c-5.7 0-11.4 0-17.1 0 7.9 13.8 13.6 34.3 14.3 61.7h17.1c-.7-27.4-6.4-47.9-14.3-61.7z" fill="#acc1cc"/><path d="m328.3 470.2c-24 0-48 0-72 0 .7-27.3 6.4-47.9 14.3-61.7h43.3c8 13.8 13.7 34.3 14.4 61.7z" style="fill:none;stroke:#3f2522;stroke-width:6;stroke-linecap:round;stroke-linejoin:round;stroke-miterlimit:10"/><path d="m312.3 408.5h-40c-6.6 0-12-5.4-12-12 0-6.6 5.4-12 12-12h40c6.6 0 12 5.4 12 12 0 6.6-5.3 12-12 12z" fill="#bdced9"/><ellipse cx="266.3" cy="396.5" fill="#fff" opacity=".26" rx="6.1" ry="8"/><path d="m312.3 384.5h-24.2c6.6 0 12 5.4 12 12s-5.4 12-12 12h24.2c6.6 0 12-5.4 12-12s-5.3-12-12-12z" fill="#acc1cc"/><path d="m312.3 408.5h-40c-6.6 0-12-5.4-12-12 0-6.6 5.4-12 12-12h40c6.6 0 12 5.4 12 12 0 6.6-5.3 12-12 12z" style="fill:none;stroke:#3f2522;stroke-width:6;stroke-linecap:round;stroke-linejoin:round;stroke-miterlimit:10"/><path d="m314.3 315.5c4.7 6.5 12.3 13 13.9 24.8.6 4.6.4 9.5-.7 14.4-3.7 15.3-21 31.5-41.4 29.5-20.9-2-37.7-22.4-35-45.8.7-6.7 3.5-25.8 18.7-42.9 9.3-10.5 19.8-16.3 27.3-19.4 3.1-1.3 6.5.9 6.6 4.3.5 17.5 5.6 28.3 10.6 35.1z" fill="#3f2522"/><path d="m314.3 315.5c4.7 6.5 12.3 13 13.9 24.8.6 4.6.4 9.5-.7 14.4-3.7 15.3-21 31.5-41.4 29.5-20.9-2-37.7-22.4-35-45.8.7-6.7 3.5-25.8 18.7-42.9 9.3-10.5 19.8-16.3 27.3-19.4 3.1-1.3 6.5.9 6.6 4.3.5 17.5 5.6 28.3 10.6 35.1z" style="fill:none;stroke:#3f2522;stroke-width:6;stroke-linecap:round;stroke-linejoin:round;stroke-miterlimit:10"/><path d="m319.9 338.6c0-.2 0-.3 0-.5s.1-.5.1-.7c.1-.5.1-1.1.2-1.6 0-.2.1-.4.1-.6.5-2.7 1.2-10.9 2.3-13.4-1.8-.3-3.4 4.3-4.5 2.9-1.4-1.7-2.7-3.2-3.8-4.8-5-6.8-10.1-17.6-10.6-35.2-.1-3.4-3.5-5.6-6.6-4.3-7.5 3.1-18 8.9-27.3 19.4-7.7 8.6-16.5 12.5-19 24.4.4.1 9.1 7.3 9.1 12.8v15.1c0 6.8 5.4 12.7 12.2 12.8 7 .1 12.7-5.5 12.7-12.4v-26c0-3.8 2.9-7.1 6.7-7.2 3.9-.1 7.2 3 7.2 6.9v11.9c0 6.9 4.8 12.4 10.7 12.4 5.4 0 9.9-4.7 10.6-10.7-.2-.4-.1-.8-.1-1.2z" fill="#301b19" opacity=".76"/><path d="m292.3 642.2c-16.2 0-29.9-13.4-30.5-30.5l-5.5-141.5h72l-5.5 141.5c-.6 17.1-14.3 30.5-30.5 30.5z" style="fill:none;stroke:#3f2522;stroke-width:6;stroke-linecap:round;stroke-linejoin:round;stroke-miterlimit:10"/><path d="m420 635.1c-17.7 0-32-14.3-32-32v-156h64v156c0 17.7-14.3 32-32 32z" fill="#38beb3"/><path d="m390 615.3v-162.6c6.6 0 12 5.4 12 12v138.7c0 6.6-5.4 11.9-12 11.9z" fill="#fff" opacity=".23"/><path d="m437 447.1v148.2c0 17.7-14.3 32-32 32-2.3 0-4.5-.2-6.7-.7 5.7 5.3 13.3 8.5 21.7 8.5 17.7 0 32-14.3 32-32v-156z" fill="#026060" opacity=".32"/><path d="m420 635.1c-17.7 0-32-14.3-32-32v-156h64v156c0 17.7-14.3 32-32 32z" style="fill:none;stroke:#3f2522;stroke-width:6;stroke-linecap:round;stroke-linejoin:round;stroke-miterlimit:10"/><path d="m436 377.1v-29.6h-32v29.6c0 8.8-7.2 16-16 16v54h64v-54c-8.8 0-16-7.2-16-16z" fill="#9bc7bc"/><path d="m391 443.7h-.7v-47.2c6.3 0 11.3 5.1 11.3 11.3v25.2c.1 5.9-4.7 10.7-10.6 10.7z" fill="#fff" opacity=".26"/><path d="m436 377.1v-29.6c-7.7 0-14 6.3-14 14v15.6c0 11.5 6.5 21.5 16 26.5v29.5c0 7.7 6.3 14 14 14v-54c-8.8 0-16-7.2-16-16z" fill="#72a596" opacity=".47"/><path d="m436 377.1v-29.6h-32v30.3c0 8.5-6.9 15.3-15.3 15.3h-.7v54h64v-54c-8.8 0-16-7.2-16-16z" style="fill:none;stroke:#3f2522;stroke-width:6;stroke-linecap:round;stroke-linejoin:round;stroke-miterlimit:10"/><path d="m408 302.9v44.7h24v-33.6c-8.1-1.8-15.2-6.2-20.3-12.4-1.2-1.6-3.7-.7-3.7 1.3z" fill="#94af4a"/><path d="m408 303.7v43.8h24v-33.6c-7.8-1.7-14.7-6-19.8-11.8-1.4-1.7-4.2-.7-4.2 1.6z" style="fill:none;stroke:#3f2522;stroke-width:6;stroke-linecap:round;stroke-linejoin:round;stroke-miterlimit:10"/><path d="m552.2 636.2h-36c-6.6 0-12-5.4-12-12v-15.5h60v15.5c0 6.6-5.4 12-12 12z" fill="#ec2731"/><path d="m555 618.8v4.7c0 2.9-2.4 5.3-5.3 5.3h-25.6c-4.1 0-7.5 3.3-7.5 7.5h35.5c6.6 0 12-5.4 12-12v-14.3h-.4c-4.8 0-8.7 3.9-8.7 8.8z" fill="#d3112e"/><path d="m511.1 630.8c-2.2 0-3.9-1.8-3.9-3.9v-15.3h3.9c2.2 0 3.9 1.8 3.9 3.9v11.4c0 2.1-1.8 3.9-3.9 3.9z" fill="#ffa4ad" opacity=".51"/><path d="m552.2 636.2h-36c-6.6 0-12-5.4-12-12v-15.5h60v15.5c0 6.6-5.4 12-12 12z" style="fill:none;stroke:#3f2522;stroke-width:6;stroke-linecap:round;stroke-linejoin:round;stroke-miterlimit:10"/><path d="m566.2 608.7h-20v-221c0-5.5 4.5-10 10-10 5.5 0 10 4.5 10 10z" fill="#48633b"/><path d="m566.2 608.7h-20v-221c0-5.5 4.5-10 10-10 5.5 0 10 4.5 10 10z" style="fill:none;stroke:#3f2522;stroke-width:6;stroke-linecap:round;stroke-linejoin:round;stroke-miterlimit:10"/><path d="m522.2 608.7h-20v-221c0-5.5 4.5-10 10-10 5.5 0 10 4.5 10 10z" fill="#94af4a"/><path d="m506.9 604.2c-2.3 0-4.2-1.9-4.2-4.2v-213.5c0-2.3 1.9-4.2 4.2-4.2 2.3 0 4.2 1.9 4.2 4.2v213.5c0 2.3-1.9 4.2-4.2 4.2z" fill="#bfbc47"/><path d="m522.2 608.7h-20v-221c0-5.5 4.5-10 10-10 5.5 0 10 4.5 10 10z" style="fill:none;stroke:#3f2522;stroke-width:6;stroke-linecap:round;stroke-linejoin:round;stroke-miterlimit:10"/><path d="m546.2 608.7h-24v-219c0-6.6 5.4-12 12-12 6.6 0 12 5.4 12 12z" fill="#4d9358"/><path d="m546.2 608.7h-24v-219c0-6.6 5.4-12 12-12 6.6 0 12 5.4 12 12z" style="fill:none;stroke:#3f2522;stroke-width:6;stroke-linecap:round;stroke-linejoin:round;stroke-miterlimit:10"/><path d="m788.3 431.2h-142.4c-10.7 0-19.3-8.7-19.3-19.3v-41.3c0-10.7 8.7-19.3 19.3-19.3h142.3c10.7 0 19.3 8.7 19.3 19.3v41.3c.1 10.6-8.6 19.3-19.2 19.3z" fill="#38beb3"/><path d="m634.8 416c-3.2 0-5.8-2.6-5.8-5.8v-38c0-3.2 2.6-5.8 5.8-5.8 3.2 0 5.8 2.6 5.8 5.8v38c.1 3.2-2.5 5.8-5.8 5.8z" fill="#fff" opacity=".23"/><path d="m780.8 412.4h-127.5c-3.4 0-6.2-2.8-6.2-6.2 0-3.4 2.8-6.2 6.2-6.2h127.5c3.4 0 6.2 2.8 6.2 6.2 0 3.4-2.8 6.2-6.2 6.2z" fill="#026060" opacity=".05"/><path d="m783.9 394.3h-133.6c-1.7 0-3.1-1.4-3.1-3.1 0-1.7 1.4-3.1 3.1-3.1h133.7c1.7 0 3.1 1.4 3.1 3.1-.1 1.8-1.5 3.1-3.2 3.1z" fill="#026060" opacity=".05"/><path d="m788.3 351.2h-1.1c1.3 2.6 2.1 5.5 2.1 8.7v46.1c0 8-6.5 14.6-14.6 14.6h-123.4c-5.9 0-10.7 4.8-10.7 10.7h147.6c10.7 0 19.3-8.7 19.3-19.3v-41.3c.1-10.9-8.6-19.5-19.2-19.5z" fill="#026060" opacity=".14"/><path d="m795.6 364h-157c-2.9 0-5.2-2.3-5.2-5.2 0-2.9 2.3-5.2 5.2-5.2h157c2.9 0 5.2 2.3 5.2 5.2-0 2.9-2.3 5.2-5.2 5.2z" fill="#92d3d1" opacity=".15"/><path d="m788.3 431.2h-142.4c-10.7 0-19.3-8.7-19.3-19.3v-41.3c0-10.7 8.7-19.3 19.3-19.3h142.3c10.7 0 19.3 8.7 19.3 19.3v41.3c.1 10.6-8.6 19.3-19.2 19.3z" style="fill:none;stroke:#3f2522;stroke-width:6;stroke-linecap:round;stroke-linejoin:round;stroke-miterlimit:10"/><path d="m715.2 630.3c-11.7 0-21.3-9.5-21.3-21.3v-68.4c0-11.7 9.5-21.3 21.3-21.3 11.7 0 21.3 9.5 21.3 21.3v68.4c-.1 11.8-9.6 21.3-21.3 21.3z" fill="#ab5647"/><path d="m700.8 617.5c-3 0-5.4-2.4-5.4-5.4v-76.7c0-3 2.4-5.4 5.4-5.4 3 0 5.4 2.4 5.4 5.4v76.7c0 3-2.4 5.4-5.4 5.4z" fill="#ffbba6" opacity=".21"/><path d="m720.6 520.1c3 3.7 4.9 8.4 4.9 13.5v68.4c0 11.7-9.5 21.3-21.3 21.3-1.9 0-3.7-.3-5.4-.7 3.9 4.7 9.8 7.7 16.4 7.7 11.7 0 21.3-9.5 21.3-21.3v-68.4c-.1-9.8-6.8-18.1-15.9-20.5z" fill="#9b4f45"/><path d="m715.2 630.3c-11.7 0-21.3-9.5-21.3-21.3v-68.4c0-11.7 9.5-21.3 21.3-21.3 11.7 0 21.3 9.5 21.3 21.3v68.4c-.1 11.8-9.6 21.3-21.3 21.3z" style="fill:none;stroke:#3f2522;stroke-width:6;stroke-linecap:round;stroke-linejoin:round;stroke-miterlimit:10"/><path d="m727.3 524.4h-24.3c-5 0-9.1-4.1-9.1-9.1 0-5 4.1-9.1 9.1-9.1h24.3c5 0 9.1 4.1 9.1 9.1 0 5-4.1 9.1-9.1 9.1z" fill="#9b4f45"/><ellipse cx="700.1" cy="515.2" fill="#ffbba6" opacity=".21" rx="6.2" ry="6.2"/><path d="m727.3 506.1h-14.3c5 0 9.1 4.1 9.1 9.1 0 5-4.1 9.1-9.1 9.1h14.3c5 0 9.1-4.1 9.1-9.1 0-5-4.1-9.1-9.1-9.1z" fill="#8c443e"/><path d="m727.3 524.4h-24.3c-5 0-9.1-4.1-9.1-9.1 0-5 4.1-9.1 9.1-9.1h24.3c5 0 9.1 4.1 9.1 9.1 0 5-4.1 9.1-9.1 9.1z" style="fill:none;stroke:#3f2522;stroke-width:6;stroke-linecap:round;stroke-linejoin:round;stroke-miterlimit:10"/><path d="m626.6 406.2h-1.2c-3.8 0-6.8-3.1-6.8-6.8v-16.4c0-3.8 3.1-6.8 6.8-6.8h1.2z" style="fill:none;stroke:#3f2522;stroke-width:6;stroke-linecap:round;stroke-linejoin:round;stroke-miterlimit:10"/><path d="m626.6 406.2h-1.2c-3.8 0-6.8-3.1-6.8-6.8v-16.4c0-3.8 3.1-6.8 6.8-6.8h1.2z" fill="#3f2522"/><path d="m807.6 406.2h1.2c3.8 0 6.8-3.1 6.8-6.8v-16.4c0-3.8-3.1-6.8-6.8-6.8h-1.2z" style="fill:none;stroke:#3f2522;stroke-width:6;stroke-linecap:round;stroke-linejoin:round;stroke-miterlimit:10"/><path d="m807.6 406.2h1.2c3.8 0 6.8-3.1 6.8-6.8v-16.4c0-3.8-3.1-6.8-6.8-6.8h-1.2z" fill="#3f2522"/><path d="m319.9 322.5c-2-2.5-4-4.8-5.6-7.1-5-6.8-10.1-17.5-10.6-35.2-.1-3.4-3.5-5.6-6.7-4.3-7.5 3.1-18 8.9-27.3 19.4-7.7 8.6-12.2 17.7-14.9 25.4" style="fill:none;stroke:#ec2731;stroke-width:6;stroke-linecap:round;stroke-linejoin:round;stroke-miterlimit:10"/><path d="m319.9 334.1c0-.2 0-.3 0-.5s.1-.5.1-.7c.1-.5.1-1.1.2-1.6 0-.2.1-.4.1-.6.5-2.7 1.2-5.4 2.3-7.9-1.8-.3-3.4-1.2-4.5-2.6-1.4-1.7-2.7-3.2-3.8-4.8-5-6.8-10.1-17.6-10.6-35.2-.1-3.4-3.5-5.6-6.6-4.3-7.5 3.1-18 8.9-27.3 19.4-7.7 8.6-13.2 20.5-15.9 28.3.4.1 5.9 3.4 5.9 8.9v15.1c0 6.8 5.4 12.7 12.2 12.8 7 .1 12.7-5.5 12.7-12.4v-26c0-3.8 2.9-7.1 6.7-7.2 3.9-.1 7.2 3 7.2 6.9v11.9c0 6.9 4.8 12.4 10.7 12.4 5.4 0 9.9-4.7 10.6-10.7-.1-.3 0-.7 0-1.2z" fill="#ec2731"/><path d="m408 578.8v15.9" style="opacity:.4;fill:none;stroke:#fff;stroke-width:6;stroke-linecap:round;stroke-linejoin:round;stroke-miterlimit:10"/><path d="m408 462.4v102.8" style="opacity:.4;fill:none;stroke:#fff;stroke-width:6;stroke-linecap:round;stroke-linejoin:round;stroke-miterlimit:10"/><path d="m717.7 177.8-10.8-16c-5.7-8.4-.4-20.2 9.8-20.9h1 1c10.1.7 15.4 12.4 9.8 20.9z" fill="#cc253d"/><path d="m717.7 184.8-10.8-16c-5.7-8.4-.4-20.2 9.8-20.9h1 1c10.1.7 15.4 12.4 9.8 20.9z" fill="#38beb3"/><path d="m717.7 184.8-10.8-16c-5.7-8.4-.4-20.2 9.8-20.9h1 1c10.1.7 15.4 12.4 9.8 20.9z" style="fill:none;stroke:#3f2522;stroke-width:6;stroke-linecap:round;stroke-linejoin:round;stroke-miterlimit:10"/><path d="m652.7 371h83.7" style="opacity:.4;fill:none;stroke:#fff;stroke-width:6;stroke-linecap:round;stroke-linejoin:round;stroke-miterlimit:10"/><path d="m753.5 371h12" style="opacity:.4;fill:none;stroke:#fff;stroke-width:6;stroke-linecap:round;stroke-linejoin:round;stroke-miterlimit:10"/><circle cx="715.2" cy="606.4" fill="#3e454f" r="6.7"/><circle cx="715.2" cy="606.4" r="6.7" style="fill:none;stroke:#3f2522;stroke-width:6;stroke-linecap:round;stroke-linejoin:round;stroke-miterlimit:10"/></svg>