<svg class="favicon" xmlns="http://www.w3.org/2000/svg" xmlns:xlink="http://www.w3.org/1999/xlink" width="500" zoomAndPan="magnify" viewBox="0 0 375 374.999991" height="500" preserveAspectRatio="xMidYMid meet" version="1.0">
<style>
    @media (prefers-color-scheme: light) { .favicon { filter: invert(0%); } }
    @media (prefers-color-scheme: dark) { .favicon { filter: invert(100%); } }
</style>
<defs><clipPath id="611166b9e4"><path d="M 187 187 L 370.980469 187 L 370.980469 370.980469 L 187 370.980469 Z M 187 187 " clip-rule="nonzero"/></clipPath><clipPath id="20c73304c9"><path d="M 4.230469 4.230469 L 341 4.230469 L 341 341 L 4.230469 341 Z M 4.230469 4.230469 " clip-rule="nonzero"/></clipPath></defs><g clip-path="url(#611166b9e4)"><path fill="#ed7a07" d="M 370.757812 259.210938 C 370.757812 262.722656 368.453125 265.746094 365.261719 266.785156 L 291.085938 291.085938 L 266.785156 365.261719 C 265.734375 368.453125 262.707031 370.757812 259.210938 370.757812 C 255.789062 370.757812 252.917969 368.605469 251.804688 365.65625 L 188.058594 198.335938 C 187.648438 197.453125 187.496094 196.503906 187.496094 195.464844 C 187.496094 191.082031 191.082031 187.496094 195.464844 187.496094 C 196.503906 187.496094 197.453125 187.648438 198.335938 188.058594 L 365.671875 251.804688 C 368.605469 252.902344 370.757812 255.773438 370.757812 259.210938 Z M 370.757812 259.210938 " fill-opacity="1" fill-rule="nonzero"/></g><g clip-path="url(#20c73304c9)"><path fill="#000000" d="M 172.222656 340.214844 C 79.597656 340.214844 4.230469 264.847656 4.230469 172.222656 C 4.230469 79.597656 79.597656 4.230469 172.222656 4.230469 C 264.847656 4.230469 340.214844 79.597656 340.214844 172.222656 C 340.214844 179.707031 339.726562 187.066406 338.746094 194.09375 C 337.617188 202.445312 329.875 208.265625 321.550781 207.132812 C 313.183594 205.988281 307.347656 198.277344 308.507812 189.921875 C 309.289062 184.273438 309.671875 178.316406 309.671875 172.222656 C 309.671875 96.441406 248.015625 34.773438 172.222656 34.773438 C 96.425781 34.773438 34.773438 96.441406 34.773438 172.222656 C 34.773438 248 96.425781 309.671875 172.222656 309.671875 C 178.269531 309.671875 184.226562 309.273438 189.9375 308.496094 C 198.261719 307.289062 206.003906 313.199219 207.132812 321.550781 C 208.265625 329.90625 202.414062 337.601562 194.0625 338.746094 C 186.992188 339.726562 179.644531 340.214844 172.222656 340.214844 Z M 172.222656 340.214844 " fill-opacity="1" fill-rule="nonzero"/></g><path fill="#000000" d="M 164.96875 263.625 C 164.496094 263.625 164.019531 263.609375 163.53125 263.5625 C 116.128906 259.164062 80.363281 219.886719 80.363281 172.207031 C 80.363281 121.566406 121.550781 80.363281 172.207031 80.363281 C 220.039062 80.363281 259.320312 116.203125 263.5625 163.730469 C 264.3125 172.128906 258.128906 179.554688 249.710938 180.300781 C 241.054688 180.925781 233.890625 174.832031 233.140625 166.449219 C 230.300781 134.777344 204.109375 110.890625 172.207031 110.890625 C 138.410156 110.890625 110.90625 138.378906 110.90625 172.191406 C 110.90625 204.003906 134.761719 230.195312 166.375 233.140625 C 174.773438 233.921875 180.941406 241.359375 180.164062 249.757812 C 179.429688 257.683594 172.773438 263.625 164.96875 263.625 Z M 164.96875 263.625 " fill-opacity="1" fill-rule="nonzero"/>
</svg>
